<svg xmlns="http://www.w3.org/2000/svg">
  <symbol viewBox="0 0 42 42" id="icon-bell">
    <title>bell</title>
    <path id="bell-bell" d="M25.2,22.9c0,0.1-0.1,0.1-0.1,0.1h-4.7c-0.1,0-0.1,0-0.1-0.1s0-0.1,0.1-0.1c0,0,0.3-0.1,0.6-0.4
	c0.3-0.3,0.4-0.8,0.4-1.8c0-0.8,0.3-1.2,0.6-1.4c0.1-0.1,0.2-0.1,0.3-0.2c0,0,0,0,0-0.1c0-0.3,0.2-0.5,0.5-0.5s0.5,0.2,0.5,0.5
	c0,0,0,0,0,0.1c0.1,0,0.2,0.1,0.3,0.2c0.3,0.2,0.6,0.6,0.6,1.4c0,1,0.1,1.5,0.4,1.8s0.6,0.4,0.6,0.4C25.1,22.8,25.2,22.8,25.2,22.9z
	 M23.1,23.2h-1c-0.1,0-0.1,0.1-0.1,0.1c0,0.3,0.3,0.6,0.6,0.6s0.6-0.3,0.6-0.6C23.3,23.3,23.2,23.2,23.1,23.2z" /> </symbol>
  <symbol viewBox="0 0 12.8 42" id="icon-block">
    <title>block</title>
    <g>
      <rect id="block-block" x="5.5" y="16.5" width="1.8" height="1.8" />
      <rect id="block-block_2_" x="5.5" y="23.7" width="1.8" height="1.8" /> </g>
  </symbol>
  <symbol viewBox="0 0 24 42" id="icon-d0">
    <title>d0</title>
    <style type="text/css">
      .st0 {
        opacity: 0.1;
        enable-background: new;
      }
      
      .st1 {
        enable-background: new;
      }
    </style>
    <g id="d0-d8">
      <g class="st0">
        <path d="M7,20.2v-6.9L8.8,15v4.7l-1.1,1.1L7,20.2z M8.8,22.6v4.7L7,29.1v-6.9l0.7-0.7L8.8,22.6z M16.6,12.9l-1.7,1.8H9.1l-1.7-1.8
			H16.6z M16.6,29.4H7.4l1.7-1.8h5.7L16.6,29.4z M15.1,20.3l0.9,0.9L15.1,22H8.9L8,21.2l0.9-0.9C8.9,20.3,15.1,20.3,15.1,20.3z
			 M15.2,19.7V15l1.8-1.8v6.9l-0.6,0.7L15.2,19.7z M17,22.2v6.9l-1.8-1.8v-4.7l1.1-1.1L17,22.2z" /> </g>
    </g>
    <g id="d0-d1">
      <g class="st1">
        <path d="M8.8,19.7l-1.1,1.1L7,20.2v-6.9L8.8,15V19.7z M8.8,27.3L7,29.1v-6.9l0.7-0.7l1.1,1.1V27.3z M16.6,12.9l-1.7,1.8H9.1
			l-1.7-1.8H16.6z M16.6,29.4H7.4l1.7-1.8h5.7L16.6,29.4z M17,20.2l-0.6,0.7l-1.1-1.1V15l1.8-1.8L17,20.2L17,20.2z M17,29.1
			l-1.8-1.8v-4.7l1.1-1.1l0.6,0.7v6.9H17z" /> </g>
    </g>
  </symbol>
  <symbol viewBox="0 0 24 42" id="icon-d1">
    <title>d1</title>
    <style type="text/css">
      .st0 {
        opacity: 0.1;
        enable-background: new;
      }
      
      .st1 {
        enable-background: new;
      }
    </style>
    <g id="d1-d8">
      <g class="st0">
        <path d="M7,20.2v-6.9L8.8,15v4.7l-1.1,1.1L7,20.2z M8.8,22.6v4.7L7,29.1v-6.9l0.7-0.7L8.8,22.6z M16.6,12.9l-1.7,1.8H9.1l-1.7-1.8
			H16.6z M16.6,29.4H7.4l1.7-1.8h5.7L16.6,29.4z M15.1,20.3l0.9,0.9L15.1,22H8.9L8,21.2l0.9-0.9C8.9,20.3,15.1,20.3,15.1,20.3z
			 M15.2,19.7V15l1.8-1.8v6.9l-0.6,0.7L15.2,19.7z M17,22.2v6.9l-1.8-1.8v-4.7l1.1-1.1L17,22.2z" /> </g>
    </g>
    <g id="d1-d1">
      <g class="st1">
        <path d="M15.2,19.7V15l1.8-1.8v7l-0.7,0.7L15.2,19.7z M16.9,22.2v6.9l-1.8-1.8v-4.7l1.1-1.1L16.9,22.2z" /> </g>
    </g>
  </symbol>
  <symbol viewBox="0 0 24 42" id="icon-d2">
    <title>d2</title>
    <style type="text/css">
      .st0 {
        opacity: 0.1;
        enable-background: new;
      }
      
      .st1 {
        enable-background: new;
      }
    </style>
    <g id="d2-d8">
      <g class="st0">
        <path d="M7,20.2v-6.9L8.8,15v4.7l-1.1,1.1L7,20.2z M8.8,22.6v4.7L7,29.1v-6.9l0.7-0.7L8.8,22.6z M16.6,12.9l-1.7,1.8H9.1l-1.7-1.8
			H16.6z M16.6,29.4H7.4l1.7-1.8h5.7L16.6,29.4z M15.1,20.3l0.9,0.9L15.1,22H8.9L8,21.2l0.9-0.9C8.9,20.3,15.1,20.3,15.1,20.3z
			 M15.2,19.7V15l1.8-1.8v6.9l-0.6,0.7L15.2,19.7z M17,22.2v6.9l-1.8-1.8v-4.7l1.1-1.1L17,22.2z" /> </g>
    </g>
    <g id="d2-d2">
      <g class="st1">
        <path d="M8.8,22.6v4.7L7,29.1v-6.9l0.7-0.7L8.8,22.6z M16.6,12.9l-1.7,1.8H9.1l-1.7-1.8H16.6z M16.6,29.4H7.4l1.7-1.8h5.7
			L16.6,29.4z M15.1,20.3l0.9,0.9L15.1,22H8.9L8,21.2l0.9-0.9C8.9,20.3,15.1,20.3,15.1,20.3z M15.2,19.7V15l1.8-1.8v6.9l-0.6,0.7
			L15.2,19.7z" /> </g>
    </g>
  </symbol>
  <symbol viewBox="0 0 24 42" id="icon-d3">
    <title>d3</title>
    <style type="text/css">
      .st0 {
        opacity: 0.1;
        enable-background: new;
      }
      
      .st1 {
        enable-background: new;
      }
    </style>
    <g id="d3-d8">
      <g class="st0">
        <path d="M7,20.2v-6.9L8.8,15v4.7l-1.1,1.1L7,20.2z M8.8,22.6v4.7L7,29.1v-6.9l0.7-0.7L8.8,22.6z M16.6,12.9l-1.7,1.8H9.1l-1.7-1.8
			H16.6z M16.6,29.4H7.4l1.7-1.8h5.7L16.6,29.4z M15.1,20.3l0.9,0.9L15.1,22H8.9L8,21.2l0.9-0.9C8.9,20.3,15.1,20.3,15.1,20.3z
			 M15.2,19.7V15l1.8-1.8v6.9l-0.6,0.7L15.2,19.7z M17,22.2v6.9l-1.8-1.8v-4.7l1.1-1.1L17,22.2z" /> </g>
    </g>
    <g id="d3-d3">
      <g class="st1">
        <path d="M16.6,12.9l-1.7,1.8H9.1l-1.7-1.8H16.6z M16.6,29.4H7.4l1.7-1.8h5.7L16.6,29.4z M15.1,20.3l0.9,0.9L15.1,22H8.9L8,21.2
			l0.9-0.9C8.9,20.3,15.1,20.3,15.1,20.3z M15.2,19.7V15l1.8-1.8v6.9l-0.6,0.7L15.2,19.7z M17,22.2v6.9l-1.8-1.8v-4.7l1.1-1.1
			L17,22.2z" /> </g>
    </g>
  </symbol>
  <symbol viewBox="0 0 24 42" id="icon-d4">
    <title>d4</title>
    <style type="text/css">
      .st0 {
        opacity: 0.1;
        enable-background: new;
      }
      
      .st1 {
        enable-background: new;
      }
    </style>
    <g id="d4-d8">
      <g class="st0">
        <path d="M7,20.2v-6.9L8.8,15v4.7l-1.1,1.1L7,20.2z M8.8,22.6v4.7L7,29.1v-6.9l0.7-0.7L8.8,22.6z M16.6,12.9l-1.7,1.8H9.1l-1.7-1.8
			H16.6z M16.6,29.4H7.4l1.7-1.8h5.7L16.6,29.4z M15.1,20.3l0.9,0.9L15.1,22H8.9L8,21.2l0.9-0.9C8.9,20.3,15.1,20.3,15.1,20.3z
			 M15.2,19.7V15l1.8-1.8v6.9l-0.6,0.7L15.2,19.7z M17,22.2v6.9l-1.8-1.8v-4.7l1.1-1.1L17,22.2z" /> </g>
    </g>
    <g id="d4-d4">
      <g class="st1">
        <path d="M7,20.2v-7L8.8,15v4.7l-1.1,1.1L7,20.2z M15.1,20.3l0.9,0.9L15.1,22H8.9L8,21.2l0.9-0.9C8.9,20.3,15.1,20.3,15.1,20.3z
			 M15.2,19.7V15l1.8-1.8v6.9l-0.6,0.7L15.2,19.7z M17,22.2v6.9l-1.8-1.8v-4.7l1.1-1.1L17,22.2z" /> </g>
    </g>
  </symbol>
  <symbol viewBox="0 0 24 42" id="icon-d5">
    <title>d5</title>
    <style type="text/css">
      .st0 {
        opacity: 0.1;
        enable-background: new;
      }
      
      .st1 {
        enable-background: new;
      }
    </style>
    <g id="d5-d8">
      <g class="st0">
        <path d="M7,20.2v-6.9L8.8,15v4.7l-1.1,1.1L7,20.2z M8.8,22.6v4.7L7,29.1v-6.9l0.7-0.7L8.8,22.6z M16.6,12.9l-1.7,1.8H9.1l-1.7-1.8
			H16.6z M16.6,29.4H7.4l1.7-1.8h5.7L16.6,29.4z M15.1,20.3l0.9,0.9L15.1,22H8.9L8,21.2l0.9-0.9C8.9,20.3,15.1,20.3,15.1,20.3z
			 M15.2,19.7V15l1.8-1.8v6.9l-0.6,0.7L15.2,19.7z M17,22.2v6.9l-1.8-1.8v-4.7l1.1-1.1L17,22.2z" /> </g>
    </g>
    <g id="d5-d5_1_">
      <g class="st1">
        <path d="M7,20.2v-6.9L8.8,15v4.7l-1.1,1.1L7,20.2z M16.6,12.9l-1.7,1.8H9.1l-1.7-1.8H16.6z M16.6,29.4H7.4l1.7-1.8h5.7L16.6,29.4z
			 M15.1,20.3l0.9,0.9L15.1,22H8.9L8,21.2l0.9-0.9C8.9,20.3,15.1,20.3,15.1,20.3z M17,22.2v6.9l-1.8-1.8v-4.7l1.1-1.1L17,22.2z" /> </g>
    </g>
  </symbol>
  <symbol viewBox="0 0 24 42" id="icon-d6">
    <title>d6</title>
    <style type="text/css">
      .st0 {
        opacity: 0.1;
        enable-background: new;
      }
      
      .st1 {
        enable-background: new;
      }
    </style>
    <g id="d6-d8">
      <g class="st0">
        <path d="M7,20.2v-6.9L8.8,15v4.7l-1.1,1.1L7,20.2z M8.8,22.6v4.7L7,29.1v-6.9l0.7-0.7L8.8,22.6z M16.6,12.9l-1.7,1.8H9.1l-1.7-1.8
			H16.6z M16.6,29.4H7.4l1.7-1.8h5.7L16.6,29.4z M15.1,20.3l0.9,0.9L15.1,22H8.9L8,21.2l0.9-0.9C8.9,20.3,15.1,20.3,15.1,20.3z
			 M15.2,19.7V15l1.8-1.8v6.9l-0.6,0.7L15.2,19.7z M17,22.2v6.9l-1.8-1.8v-4.7l1.1-1.1L17,22.2z" /> </g>
    </g>
    <g id="d6-d6">
      <g class="st1">
        <path d="M7,20.2v-6.9L8.8,15v4.7l-1.1,1.1L7,20.2z M8.8,22.6v4.7L7,29.1v-6.9l0.7-0.7L8.8,22.6z M16.6,12.9l-1.7,1.8H9.1l-1.7-1.8
			H16.6z M16.6,29.4H7.4l1.7-1.8h5.7L16.6,29.4z M15.1,20.3l0.9,0.9L15.1,22H8.9L8,21.2l0.9-0.9C8.9,20.3,15.1,20.3,15.1,20.3z
			 M17,22.2v6.9l-1.8-1.8v-4.7l1.1-1.1L17,22.2z" /> </g>
    </g>
  </symbol>
  <symbol viewBox="0 0 24 42" id="icon-d7">
    <title>d7</title>
    <style type="text/css">
      .st0 {
        opacity: 0.1;
        enable-background: new;
      }
      
      .st1 {
        enable-background: new;
      }
    </style>
    <g id="d7-d8">
      <g class="st0">
        <path d="M7,20.2v-6.9L8.8,15v4.7l-1.1,1.1L7,20.2z M8.8,22.6v4.7L7,29.1v-6.9l0.7-0.7L8.8,22.6z M16.6,12.9l-1.7,1.8H9.1l-1.7-1.8
			H16.6z M16.6,29.4H7.4l1.7-1.8h5.7L16.6,29.4z M15.1,20.3l0.9,0.9L15.1,22H8.9L8,21.2l0.9-0.9C8.9,20.3,15.1,20.3,15.1,20.3z
			 M15.2,19.7V15l1.8-1.8v6.9l-0.6,0.7L15.2,19.7z M17,22.2v6.9l-1.8-1.8v-4.7l1.1-1.1L17,22.2z" /> </g>
    </g>
    <g id="d7-d7">
      <g class="st1">
        <path d="M16.6,12.9l-1.7,1.8H9.1l-1.7-1.8H16.6z M15.2,19.7V15l1.8-1.8v6.9l-0.6,0.7L15.2,19.7z M17,22.2v6.9l-1.8-1.8v-4.7
			l1.1-1.1L17,22.2z" /> </g>
    </g>
  </symbol>
  <symbol viewBox="0 0 24 42" id="icon-d8">
    <title>d8</title>
    <style type="text/css">
      .st0 {
        opacity: 0.1;
        enable-background: new;
      }
      
      .st1 {
        enable-background: new;
      }
    </style>
    <g id="d8-d8">
      <g class="st0">
        <path d="M7,20.2v-6.9L8.8,15v4.7l-1.1,1.1L7,20.2z M8.8,22.6v4.7L7,29.1v-6.9l0.7-0.7L8.8,22.6z M16.6,12.9l-1.7,1.8H9.1l-1.7-1.8
			H16.6z M16.6,29.4H7.4l1.7-1.8h5.7L16.6,29.4z M15.1,20.3l0.9,0.9L15.1,22H8.9L8,21.2l0.9-0.9C8.9,20.3,15.1,20.3,15.1,20.3z
			 M15.2,19.7V15l1.8-1.8v6.9l-0.6,0.7L15.2,19.7z M17,22.2v6.9l-1.8-1.8v-4.7l1.1-1.1L17,22.2z" /> </g>
    </g>
    <g id="d8-d8f">
      <g class="st1">
        <path d="M7,20.2v-6.9L8.8,15v4.7l-1.1,1.1L7,20.2z M8.8,22.6v4.7L7,29.1v-6.9l0.7-0.7L8.8,22.6z M16.6,12.9l-1.7,1.8H9.1l-1.7-1.8
			H16.6z M16.6,29.4H7.4l1.7-1.8h5.7L16.6,29.4z M15.1,20.3l0.9,0.9L15.1,22H8.9L8,21.2l0.9-0.9C8.9,20.3,15.1,20.3,15.1,20.3z
			 M15.2,19.7V15l1.8-1.8v6.9l-0.6,0.7L15.2,19.7z M17,22.2v6.9l-1.8-1.8v-4.7l1.1-1.1L17,22.2z" /> </g>
    </g>
  </symbol>
  <symbol viewBox="0 0 24 42" id="icon-d9">
    <title>d9</title>
    <style type="text/css">
      .st0 {
        opacity: 0.1;
        enable-background: new;
      }
      
      .st1 {
        enable-background: new;
      }
    </style>
    <g id="d9-d9_1_">
      <g class="st0">
        <path d="M7,20.2v-6.9L8.8,15v4.7l-1.1,1.1L7,20.2z M8.8,22.6v4.7L7,29.1v-6.9l0.7-0.7L8.8,22.6z M16.6,12.9l-1.7,1.8H9.1l-1.7-1.8
			H16.6z M16.6,29.4H7.4l1.7-1.8h5.7L16.6,29.4z M15.1,20.3l0.9,0.9L15.1,22H8.9L8,21.2l0.9-0.9C8.9,20.3,15.1,20.3,15.1,20.3z
			 M15.2,19.7V15l1.8-1.8v6.9l-0.6,0.7L15.2,19.7z M17,22.2v6.9l-1.8-1.8v-4.7l1.1-1.1L17,22.2z" /> </g>
    </g>
    <g id="d9-d9">
      <g class="st1">
        <path d="M7,20.2v-6.9L8.8,15v4.7l-1.1,1.1L7,20.2z M16.6,12.9l-1.7,1.8H9.1l-1.7-1.8H16.6z M16.6,29.4H7.4l1.7-1.8h5.7L16.6,29.4z
			 M15.1,20.3l0.9,0.9L15.1,22H8.9L8,21.2l0.9-0.9C8.9,20.3,15.1,20.3,15.1,20.3z M15.2,19.7V15l1.8-1.8v6.9l-0.6,0.7L15.2,19.7z
			 M17,22.2v6.9l-1.8-1.8v-4.7l1.1-1.1L17,22.2z" /> </g>
    </g>
  </symbol>
  <symbol viewBox="0 0 42 42" id="icon-fri">
    <title>fri</title>
    <style type="text/css">
      .st0 {
        enable-background: new;
      }
    </style>
    <g class="st0">
      <path d="M6.6,19.9v-5.9l2.3,2.2v3.1l-1.4,1.5L6.6,19.9z M8.9,23v3.1l-2.3,2.3v-5.9l0.9-0.9L8.9,23z M16.3,13.5L14,15.8H9.3
		l-2.3-2.3H16.3z M13.9,20l1.1,1.1l-1.1,1.1H9l-1.1-1.1L9,20H13.9z" />
      <path d="M18.8,19.9v-5.9l2.3,2.2v3.1l-1.4,1.5L18.8,19.9z M21.1,23v3.5l-2.3,2.3v-6.3l0.9-0.9L21.1,23z M27,14.6l-1.1,1.1h-4.3
		l-2.3-2.3h6.5L27,14.6z M26.1,20l1.1,1.1l-1.1,1.1h-4.8l-1.1-1.1l1.1-1.1H26.1z M22.1,24.4v-1.6l1.6,0l4.4,4.4l0,1.6h-1.6
		L22.1,24.4z M28.5,19.9l-0.9,0.9l-1.4-1.4v-3.1l1.1-1.1l1.1,1.1V19.9z" />
      <path d="M32.1,19.3v-3.5l2.3-2.3v6.4l-0.9,0.9L32.1,19.3z M34.4,22.4v6.4l-2.3-2.3V23l1.4-1.4L34.4,22.4z" /> </g>
  </symbol>
  <symbol viewBox="0 0 42 42" id="icon-mon">
    <title>mon</title>
    <style type="text/css">
      .st0 {
        enable-background: new;
      }
    </style>
    <g class="st0">
      <path d="M3.9,19.9v-5.9l2.3,2.2v3.1l-1.4,1.5L3.9,19.9z M6.2,23v3.5l-2.3,2.3v-6.4l0.9-0.9L6.2,23z M13.2,13.5l-2.3,2.3H6.6
		l-2.3-2.3H13.2z M7.7,17.4l1.1-1.1l1.1,1.1v4.5l-1.1,1.2l-1.1-1.2V17.4z M11.3,19.3v-3.1l2.3-2.2v5.9l-0.9,0.9L11.3,19.3z
		 M13.6,22.4v6.3l-2.3-2.3V23l1.4-1.4L13.6,22.4z" />
      <path d="M18.4,19.3L17,20.7l-0.9-0.9v-3.6l1.1-1.1l1.1,1.1V19.3z M16.2,26.1l1.1,1.1l1.1-1.1V23L17,21.6l-0.9,0.9V26.1z M24.3,14.6
		l-1.1,1.1h-4.3l-1.1-1.1l1.1-1.1h4.3L24.3,14.6z M18.9,28.8l-1.1-1.1l1.1-1.1h4.3l1.1,1.1l-1.1,1.1H18.9z M25.8,19.9L25,20.7
		l-1.4-1.4v-3.1l1.1-1.1l1.1,1.1V19.9z M25.8,26.1l-1.1,1.1l-1.1-1.1V23l1.4-1.4l0.9,0.9V26.1z" />
      <path d="M28.4,19.9v-6.3l2.3,2.3l0,3.5l-1.4,1.4L28.4,19.9z M30.6,23v3.5l-2.3,2.3v-6.4l0.9-0.9L30.6,23z M29,13.5l3.3,0l3,3.1
		l0,1.6h-1.6L29,13.5z M35.8,19.3v-3.5l2.3-2.3v6.3l-0.9,0.9L35.8,19.3z M38,22.4v6.3l-2.3-2.3V23l1.4-1.4L38,22.4z" /> </g>
  </symbol>
  <symbol viewBox="0 0 42 42" id="icon-sat">
    <title>sat</title>
    <g>
      <path d="M6.2,19.3l-1.4,1.4l-0.9-0.9v-3.6l1.1-1.1l1.1,1.1V19.3z M5.1,28.8l-1.1-1.1l1.1-1.1h5.8l1.1,1.1l-1.1,1.1H5.1z M11.2,20
		l1.1,1.1l-1.1,1.1H6.4l-1.1-1.1L6.4,20H11.2z M13.6,14.6l-1.1,1.1H6.6l-1.1-1.1l1.1-1.1h5.8L13.6,14.6z M13.6,26.1l-1.1,1.1
		l-1.1-1.1V23l1.4-1.4l0.9,0.9V26.1z" />
      <path d="M16.2,19.9v-5.9l2.3,2.2v3.1L17,20.7L16.2,19.9z M18.4,23v3.5l-2.3,2.3v-6.4l0.9-0.9L18.4,23z M25.4,13.5l-2.3,2.3h-4.3
		l-2.3-2.3H25.4z M23.4,20l1.1,1.1l-1.1,1.1h-4.8l-1.1-1.1l1.1-1.1H23.4z M23.6,19.3v-3.1l2.3-2.2v5.9L25,20.7L23.6,19.3z
		 M25.8,22.4v6.3l-2.3-2.3V23l1.4-1.4L25.8,22.4z" />
      <path d="M38.6,14.6l-1.2,1.1H29l-1.1-1.1l1.1-1.1h8.4L38.6,14.6z M34.4,19.8l-0.9,0.9l-1.4-1.4v-1.8l1.1-1.1l1.1,1.1V19.8z
		 M34.4,27.7l-1.1,1.1l-1.1-1.1V23l1.4-1.4l0.9,0.8V27.7z" /> </g>
  </symbol>
  <symbol viewBox="0 0 42 42" id="icon-snooze">
    <title>snooze</title>
    <g id="snooze-snooze">
      <path d="M24.4,22.7c0,0-0.3-0.1-0.6-0.4c-0.3-0.3-0.4-0.8-0.4-1.8c0-0.8-0.3-1.2-0.6-1.4c-0.1-0.1-0.2-0.1-0.3-0.2c0,0,0,0,0-0.1
		c0-0.3-0.2-0.5-0.5-0.5s-0.5,0.2-0.5,0.5c0,0,0,0,0,0.1c-0.1,0-0.2,0.1-0.3,0.2c-0.3,0.2-0.6,0.6-0.6,1.4c0,1-0.1,1.5-0.4,1.8
		s-0.6,0.4-0.6,0.4c-0.1,0-0.1,0.1-0.1,0.1l0.1,0.1h4.7c0.1,0,0.1,0,0.1-0.1S24.4,22.8,24.4,22.7z" />
      <path d="M22.4,23.2h-1c-0.1,0-0.1,0.1-0.1,0.1c0,0.3,0.3,0.6,0.6,0.6s0.6-0.3,0.6-0.6C22.6,23.3,22.5,23.2,22.4,23.2z" />
      <path d="M24.4,18.7h-0.5c0,0-0.1,0-0.2,0l0.2-0.2l0.5-0.5v-0.2h-1v0.3h0.4c0.1,0,0.1,0,0.1,0s-0.1,0.1-0.2,0.2l-0.4,0.5V19h1.1
		V18.7z" />
      <path d="M25,18.1l0.1-0.1l0.3-0.3v-0.1h-0.6v0.2h0.3h0.1l-0.1,0.1l-0.3,0.3v0.2h0.7v-0.2h-0.3C25.1,18.1,25.1,18.1,25,18.1z" />
      <path d="M26.1,17.4C26.1,17.4,26,17.4,26.1,17.4L26.1,17.4l0.2-0.3V17h-0.5v0.1H26h0.1c0,0,0,0-0.1,0.1l-0.2,0.2v0.1h0.5v-0.1
		C26.3,17.4,26.1,17.4,26.1,17.4z" /> </g>
  </symbol>
  <symbol viewBox="0 0 42 42" id="icon-sun">
    <title>sun</title>
    <style type="text/css">
      .st0 {
        enable-background: new;
      }
    </style>
    <g class="st0">
      <path d="M6.2,19.3l-1.4,1.4l-0.9-0.9v-3.6l1.1-1.1l1.1,1.1V19.3z M5.1,28.8l-1.1-1.1l1.1-1.1h5.8l1.1,1.1l-1.1,1.1H5.1z M11.2,20
		l1.1,1.1l-1.1,1.1H6.4l-1.1-1.1L6.4,20H11.2z M13.6,14.6l-1.1,1.1H6.6l-1.1-1.1l1.1-1.1h5.8L13.6,14.6z M13.6,26.1l-1.1,1.1
		l-1.1-1.1V23l1.4-1.4l0.9,0.9V26.1z" />
      <path d="M16.2,13.5l2.3,2.3v3.5L17,20.7l-0.9-0.9V13.5z M16.2,26.1l1.1,1.1l1.1-1.1V23L17,21.6l-0.9,0.9V26.1z M18.9,28.8l-1.1-1.1
		l1.1-1.1h4.3l1.1,1.1l-1.1,1.1H18.9z M25.8,19.9L25,20.7l-1.4-1.4v-3.5l2.3-2.3V19.9z M25.8,26.1l-1.1,1.1l-1.1-1.1V23l1.4-1.4
		l0.9,0.9V26.1z" />
      <path d="M28.4,19.9v-6.3l2.3,2.3l0,3.5l-1.4,1.4L28.4,19.9z M30.6,23v3.5l-2.3,2.3v-6.4l0.9-0.9L30.6,23z M29,13.5l3.3,0l3,3.1
		l0,1.6h-1.6L29,13.5z M35.8,19.3v-3.5l2.3-2.3v6.3l-0.9,0.9L35.8,19.3z M38,22.4v6.3l-2.3-2.3V23l1.4-1.4L38,22.4z" /> </g>
  </symbol>
  <symbol viewBox="0 0 42 42" id="icon-thu">
    <title>thu</title>
    <style type="text/css">
      .st0 {
        enable-background: new;
      }
    </style>
    <g class="st0">
      <path d="M14.1,14.6L13,15.8H4.6l-1.1-1.1l1.1-1.1H13L14.1,14.6z M9.9,19.8l-0.9,0.9l-1.4-1.4v-1.8l1.1-1.1l1.1,1.1V19.8z M9.9,27.7
		l-1.1,1.1l-1.1-1.1V23l1.4-1.4l0.9,0.9V27.7z" />
      <path d="M16.2,19.9v-6.4l2.3,2.3v3.5L17,20.7L16.2,19.9z M18.4,23v3.5l-2.3,2.3v-6.4l0.9-0.9L18.4,23z M23.4,20l1.1,1.1l-1.1,1.1
		h-4.8l-1.1-1.1l1.1-1.1H23.4z M23.6,19.3v-3.5l2.3-2.3v6.3L25,20.7L23.6,19.3z M25.8,22.4v6.3l-2.3-2.3V23l1.4-1.4L25.8,22.4z" />
      <path d="M28.4,13.5l2.3,2.3v3.5l-1.4,1.4l-0.9-0.9V13.5z M28.4,26.1l1.1,1.1l1.1-1.1V23l-1.4-1.4l-0.9,0.9V26.1z M31.1,28.8
		l-1.1-1.1l1.1-1.1h4.3l1.1,1.1l-1.1,1.1H31.1z M38,19.9l-0.9,0.9l-1.4-1.4v-3.5l2.3-2.3V19.9z M38,26.1l-1.1,1.1l-1.1-1.1V23
		l1.4-1.4l0.9,0.9V26.1z" /> </g>
  </symbol>
  <symbol viewBox="0 0 42 42" id="icon-tue">
    <title>tue</title>
    <style type="text/css">
      .st0 {
        enable-background: new;
      }
    </style>
    <g class="st0">
      <path d="M14.1,14.6L13,15.8H4.6l-1.1-1.1l1.1-1.1H13L14.1,14.6z M9.9,19.8l-0.9,0.9l-1.4-1.4v-1.8l1.1-1.1l1.1,1.1V19.8z M9.9,27.7
		l-1.1,1.1l-1.1-1.1V23l1.4-1.4l0.9,0.9V27.7z" />
      <path d="M16.2,13.5l2.3,2.3v3.5L17,20.7l-0.9-0.9V13.5z M16.2,26.1l1.1,1.1l1.1-1.1V23L17,21.6l-0.9,0.9V26.1z M18.9,28.8l-1.1-1.1
		l1.1-1.1h4.3l1.1,1.1l-1.1,1.1H18.9z M25.8,19.9L25,20.7l-1.4-1.4v-3.5l2.3-2.3V19.9z M25.8,26.1l-1.1,1.1l-1.1-1.1V23l1.4-1.4
		l0.9,0.9V26.1z" />
      <path d="M28.4,19.9v-5.9l2.3,2.2v3.1l-1.4,1.5L28.4,19.9z M30.6,23v3.1l-2.3,2.3v-5.9l0.9-0.9L30.6,23z M38,13.5l-2.3,2.3h-4.7
		l-2.3-2.3H38z M38,28.8h-9.2l2.3-2.3h4.7L38,28.8z M35.6,20l1.1,1.1l-1.1,1.1h-4.8l-1.1-1.1l1.1-1.1H35.6z" /> </g>
  </symbol>
  <symbol viewBox="0 0 42 42" id="icon-wed">
    <title>wed</title>
    <style type="text/css">
      .st0 {
        enable-background: new;
      }
    </style>
    <g class="st0">
      <path d="M6.2,19.3l-1.4,1.4l-0.9-0.9v-6.3l2.3,2.3V19.3z M6.2,26.1l-2.3,2.3v-5.9l0.9-0.9L6.2,23V26.1z M13.2,28.8H4.4l2.3-2.3h4.2
		L13.2,28.8z M10,24.8L8.9,26l-1.1-1.1v-4.5l1.1-1.2l1.1,1.2V24.8z M13.6,19.9l-0.9,0.9l-1.4-1.4v-3.5l2.3-2.3V19.9z M13.6,28.3
		l-2.3-2.3V23l1.4-1.4l0.9,0.9V28.3z" />
      <path d="M16.2,19.9v-5.9l2.3,2.2v3.1L17,20.7L16.2,19.9z M18.4,23v3.1l-2.3,2.3v-5.9l0.9-0.9L18.4,23z M25.8,13.5l-2.3,2.3h-4.7
		l-2.3-2.3H25.8z M25.8,28.8h-9.2l2.3-2.3h4.7L25.8,28.8z M23.4,20l1.1,1.1l-1.1,1.1h-4.8l-1.1-1.1l1.1-1.1H23.4z" />
      <path d="M28.4,19.9v-5.9l2.3,2.2v3.1l-1.4,1.5L28.4,19.9z M30.6,23v3.1l-2.3,2.3v-5.9l0.9-0.9L30.6,23z M28.8,28.8l2.3-2.3h4.3
		l1.1,1.1l-1.1,1.1H28.8z M36.5,14.6l-1.1,1.1h-4.3l-2.3-2.3h6.5L36.5,14.6z M38,19.9l-0.9,0.9l-1.4-1.4v-3.1l1.1-1.1l1.1,1.1V19.9z
		 M38,26.1l-1.1,1.1l-1.1-1.1V23l1.4-1.4l0.9,0.9V26.1z" /> </g>
  </symbol>
</svg>