<svg xmlns="http://www.w3.org/2000/svg">
  <symbol viewBox="0 0 42 42" id="icon-bell">
    <title>bell</title>
    <path id="bell-bell" d="M25.2,22.9c0,0.1-0.1,0.1-0.1,0.1h-4.7c-0.1,0-0.1,0-0.1-0.1s0-0.1,0.1-0.1c0,0,0.3-0.1,0.6-0.4
	c0.3-0.3,0.4-0.8,0.4-1.8c0-0.8,0.3-1.2,0.6-1.4c0.1-0.1,0.2-0.1,0.3-0.2c0,0,0,0,0-0.1c0-0.3,0.2-0.5,0.5-0.5s0.5,0.2,0.5,0.5
	c0,0,0,0,0,0.1c0.1,0,0.2,0.1,0.3,0.2c0.3,0.2,0.6,0.6,0.6,1.4c0,1,0.1,1.5,0.4,1.8s0.6,0.4,0.6,0.4C25.1,22.8,25.2,22.8,25.2,22.9z
	 M23.1,23.2h-1c-0.1,0-0.1,0.1-0.1,0.1c0,0.3,0.3,0.6,0.6,0.6s0.6-0.3,0.6-0.6C23.3,23.3,23.2,23.2,23.1,23.2z" /> </symbol>
  <symbol viewBox="0 0 12.8 42" id="icon-block">
    <title>block</title>
    <g>
      <rect id="block-block" x="5.5" y="16.5" width="1.8" height="1.8" />
      <rect id="block-block_2_" x="5.5" y="23.7" width="1.8" height="1.8" /> </g>
  </symbol>
  <symbol viewBox="0 0 24 42" id="icon-d0">
    <title>d0</title>
    <g id="d0-d0">
      <path d="M10,14.9V19l-1.3,1.3l-0.4-0.4v-5.7L10,14.9z M8.3,26.9v-5.7l0.4-0.4l1.3,1.3v4.1L8.3,26.9z M15.9,28.5H9.4
		c-0.6-0.1-0.9-0.5-1.1-1.1l1.7-0.7h5.2L15.9,28.5z M15.3,14.5H10l-1.7-0.7c0.1-0.6,0.5-0.9,1.1-1.1h6.5L15.3,14.5z M15.7,19.1v-4.6
		l0.7-1.7c0.6,0.1,0.9,0.5,1.1,1.1V20L17,20.4L15.7,19.1z M17,20.8l0.4,0.4v6.1c-0.1,0.6-0.5,0.9-1.1,1.1l-0.7-1.7v-4.6L17,20.8z" /> </g>
  </symbol>
  <symbol viewBox="0 0 24 42" id="icon-d1">
    <title>d1</title>
    <g id="d1-d8" opacity="0.1">
      <path d="M9.3,15.3v4.1L8,20.7l-0.4-0.4v-5.7L9.3,15.3z M7.6,27.3v-5.7L8,21.2l1.3,1.3v4.1L7.6,27.3z M15.2,28.8H8.7
		c-0.6-0.1-0.9-0.5-1.1-1.1L9.3,27h5.2L15.2,28.8z M14.6,14.8H9.4l-1.7-0.7c0.1-0.6,0.5-0.9,1.1-1.1h6.5L14.6,14.8z M15,20.1
		l0.9,0.9L15,21.8H9.3l-0.9-0.9L9.3,20H15V20.1z M15,19.4v-4.6l0.7-1.7c0.6,0.1,0.9,0.5,1.1,1.1v6.1l-0.4,0.4L15,19.4z M16.3,21.2
		l0.4,0.4v6.1c-0.1,0.6-0.5,0.9-1.1,1.1L15,27.1v-4.6L16.3,21.2z" /> </g>
    <g id="d1-d1">
      <path d="M15,19.4v-4.6l0.7-1.7c0.6,0.1,0.9,0.5,1.1,1.1v6.1l-0.4,0.4L15,19.4z M16.3,21.1l0.4,0.4v6.1c-0.1,0.6-0.5,0.9-1.1,1.1
		L14.9,27v-4.5L16.3,21.1z" /> </g>
  </symbol>
  <symbol viewBox="0 0 24 42" id="icon-d2">
    <title>d2</title>
    <g id="d2-d2">
      <path d="M7.9,26.8v-5.7l0.4-0.4L9.6,22v4.1L7.9,26.8z M16.1,28.3H8.9c-0.6-0.1-0.9-0.5-1.1-1.1l1.7-0.7h5.9L16.1,28.3z M14.8,14.3
		H9.6l-1.7-0.7C8,13,8.4,12.7,9,12.5h6.5L14.8,14.3z M15.3,19.6l0.9,0.9l-0.9,0.9H9.6l-0.9-0.9l0.9-0.9H15.3z M15.3,18.9v-4.6
		l0.7-1.7c0.6,0.1,0.9,0.5,1.1,1.1v6.1l-0.4,0.4L15.3,18.9z" /> </g>
  </symbol>
  <symbol viewBox="0 0 24 42" id="icon-d3">
    <title>d3</title>
    <g id="d3-d3">
      <path d="M15.8,28.7H9.3c-0.6-0.1-0.9-0.5-1.1-1.1l1.7-0.7h5.2L15.8,28.7z M15.1,14.7H9.9L8.2,14c0.1-0.6,0.5-0.9,1.1-1.1h6.5
		L15.1,14.7z M15.6,19.9l0.9,0.9l-0.9,0.9H9.9L9,20.8l0.9-0.9H15.6z M15.6,19.3v-4.6l0.7-1.7c0.6,0.1,0.9,0.5,1.1,1.1v6.1L17,20.6
		L15.6,19.3z M16.9,21l0.4,0.4v6.1c-0.1,0.6-0.5,0.9-1.1,1.1l-0.7-1.7v-4.6L16.9,21z" /> </g>
  </symbol>
  <symbol viewBox="0 0 24 42" id="icon-d4">
    <title>d4</title>
    <g id="d4-d4">
      <path d="M9.2,14.6v4.8l-1.3,1.3l-0.4-0.4V14L9.2,14.6z M14.9,20.1l0.9,0.9l-0.9,0.9H9.2L8.3,21l0.9-0.9H14.9z M14.9,19.4v-4.6
		l0.7-1.7c0.6,0.1,0.9,0.5,1.1,1.1v6.1l-0.4,0.4L14.9,19.4z M16.2,21.2l0.4,0.4v6.1c-0.1,0.6-0.5,0.9-1.1,1.1l-0.7-1.7v-4.6
		L16.2,21.2z" /> </g>
  </symbol>
  <symbol viewBox="0 0 24 42" id="icon-d5">
    <title>d5</title>
    <g id="d5-d5">
      <path d="M9.5,15.1v4.1l-1.3,1.3l-0.4-0.4v-5.7L9.5,15.1z M15.4,28.6H8.9c-0.6-0.1-0.9-0.5-1.1-1.1l1.7-0.7h5.2L15.4,28.6z
		 M15.4,14.6H9.5L7.8,14c0.1-0.6,0.5-0.9,1.1-1.1H16L15.4,14.6z M15.1,19.9l0.9,0.9l-0.9,0.9H9.4l-0.9-0.9l0.9-0.9H15.1z M16.5,20.9
		l0.4,0.4v6.1c-0.1,0.6-0.5,0.9-1.1,1.1l-0.7-1.7v-4.6L16.5,20.9z" /> </g>
  </symbol>
  <symbol viewBox="0 0 24 42" id="icon-d6">
    <title>d6</title>
    <g id="d6-d6">
      <path d="M9.8,15.3v4.1l-1.3,1.3L8,20.3v-5.7L9.8,15.3z M8,27.3v-5.7l0.4-0.4l1.3,1.3v4.1L8,27.3z M15.7,28.8H9.2
		c-0.6-0.1-0.9-0.5-1.1-1.1L9.8,27H15L15.7,28.8z M15.7,14.8H9.8L8,14.2c0.1-0.6,0.5-0.9,1.1-1.1h7.2L15.7,14.8z M15.4,20.1l0.9,0.9
		l-0.9,0.9H9.7L8.8,21l0.9-0.9H15.4z M16.7,21.2l0.4,0.4v6.1c-0.1,0.6-0.5,0.9-1.1,1.1l-0.7-1.7v-4.6L16.7,21.2z" /> </g>
  </symbol>
  <symbol viewBox="0 0 24 42" id="icon-d7">
    <title>d7</title>
    <g id="d7-d7">
      <path d="M9.1,14.8v4.1l-1.3,1.3l-0.4-0.4v-5.7L9.1,14.8z M14.3,14.3H9.1l-1.7-0.7c0.1-0.6,0.5-0.9,1.1-1.1H15L14.3,14.3z
		 M14.7,18.9v-4.6l0.7-1.7c0.6,0.1,0.9,0.5,1.1,1.1v6.1L16,20.2L14.7,18.9z M16,20.6l0.4,0.4v6.1c-0.1,0.6-0.5,0.9-1.1,1.1l-0.7-1.7
		V22L16,20.6z" /> </g>
  </symbol>
  <symbol viewBox="0 0 24 42" id="icon-d8">
    <title>d8</title>
    <g id="d8-d8">
      <path d="M9.3,15.3v4.1L8,20.7l-0.4-0.4v-5.7L9.3,15.3z M7.6,27.3v-5.7L8,21.2l1.3,1.3v4.1L7.6,27.3z M15.2,28.8H8.7
		c-0.6-0.1-0.9-0.5-1.1-1.1L9.3,27h5.2L15.2,28.8z M14.6,14.8H9.4l-1.7-0.7c0.1-0.6,0.5-0.9,1.1-1.1h6.5L14.6,14.8z M15,20.1
		l0.9,0.9L15,21.8H9.3l-0.9-0.9L9.3,20H15V20.1z M15,19.4v-4.6l0.7-1.7c0.6,0.1,0.9,0.5,1.1,1.1v6.1l-0.4,0.4L15,19.4z M16.3,21.2
		l0.4,0.4v6.1c-0.1,0.6-0.5,0.9-1.1,1.1L15,27.1v-4.6L16.3,21.2z" /> </g>
  </symbol>
  <symbol viewBox="0 0 24 42" id="icon-d9">
    <title>d9</title>
    <g id="d9-d9">
      <path d="M9.6,15.2v4.1l-1.3,1.3l-0.4-0.4v-5.7L9.6,15.2z M15.5,28.7H9c-0.6-0.1-0.9-0.5-1.1-1.1l1.7-0.7h5.2L15.5,28.7z M14.9,14.7
		H9.7L8,14c0.1-0.6,0.5-0.9,1.1-1.1h6.5L14.9,14.7z M15.3,20l0.9,0.9l-0.9,0.9H9.6l-0.9-0.9L9.6,20H15.3z M15.3,19.3v-4.6L16,13
		c0.6,0.1,0.9,0.5,1.1,1.1v6.1l-0.4,0.4L15.3,19.3z M16.6,21.1l0.4,0.4v6.1c-0.1,0.6-0.5,0.9-1.1,1.1L15.3,27v-4.6L16.6,21.1z" /> </g>
  </symbol>
  <symbol viewBox="0 0 42 42" id="icon-fri">
    <title>fri</title>
    <g id="fri-fri">
      <path d="M9.1,15.3v4.1l-1.3,1.3l-0.4-0.4v-5.7L9.1,15.3z M9.1,22.5v4.6l-0.7,1.7c-0.6-0.1-0.9-0.5-1.1-1.1v-6.1l0.4-0.4L9.1,22.5z
		 M15,14.9H9.2l-1.7-0.7c0.1-0.6,0.5-0.9,1.1-1.1h7.2L15,14.9z M14.8,20.1l0.9,0.9l-0.9,0.9H9.1L8.3,21l0.9-0.9H14.8z" />
      <path d="M20,15.3v4.1l-1.3,1.3l-0.4-0.4v-5.7L20,15.3z M20,22.5v4.6l-0.7,1.7c-0.6-0.1-0.9-0.5-1.1-1.1v-6.1l0.4-0.4L20,22.5z
		 M25.3,14.9h-5.2l-1.7-0.7c0.1-0.6,0.5-0.9,1.1-1.1H26L25.3,14.9z M25.7,20.1l0.9,0.9l-0.9,0.9H20L19.2,21l0.9-0.9H25.7z
		 M20.5,22.3h1.3l5.7,5.7c-0.3,0.6-0.9,0.9-1.7,0.9l-5.2-5.2L20.5,22.3L20.5,22.3z M25.7,19.5v-4.6l0.7-1.7c0.6,0.1,0.9,0.5,1.1,1.1
		v6.1L27,20.8L25.7,19.5z" />
      <path d="M32.7,19.5v-4.6l0.7-1.7c0.6,0.1,0.9,0.5,1.1,1.1v6.1L34,20.8L32.7,19.5z M34,21l0.4,0.4v6.1c-0.1,0.6-0.5,0.9-1.1,1.1
		l-0.7-1.7v-4.6L34,21z" /> </g>
  </symbol>
  <symbol viewBox="0 0 42 42" id="icon-mon">
    <title>mon</title>
    <g id="mon-mon">
      <path d="M7.8,15.3v4.1l-1.3,1.3l-0.4-0.4v-5.7L7.8,15.3z M7.8,22.5v4.6l-0.7,1.7c-0.6-0.1-0.9-0.5-1.1-1.1v-6.1l0.4-0.4L7.8,22.5z
		 M13.1,14.9H7.9l-1.7-0.7c0.1-0.6,0.5-0.9,1.1-1.1h6.5L13.1,14.9z M11.6,20.3l-0.9,0.9l-0.9-0.9v-5h1.7L11.6,20.3L11.6,20.3z
		 M13.5,19.5v-4.6l0.7-1.7c0.6,0.1,0.9,0.5,1.1,1.1v6.1l-0.4,0.4L13.5,19.5z M14.8,21.2l0.4,0.4v6.1c-0.1,0.6-0.5,0.9-1.1,1.1
		l-0.7-1.7v-4.6L14.8,21.2z" />
      <path d="M17.4,20.8L17,20.3v-5l1.1-1.1l0.7,0.7v4.6L17.4,20.8z M18.8,22.5v4.6l-0.7,0.7L17,26.7v-5l0.4-0.4L18.8,22.5z M24,14.9
		h-4.8L18.3,14l0.9-0.9H24l0.9,0.9L24,14.9z M24.9,28L24,28.9h-4.8L18.3,28l0.9-0.9H24L24.9,28z M24.4,19.5v-4.6l0.7-0.7l1.1,1.1v5
		l-0.4,0.4L24.4,19.5z M25.7,21.2l0.4,0.4v5L25,27.7L24.3,27v-4.6L25.7,21.2z" />
      <path d="M28.4,21L28,20.6v-6.1c0.1-0.6,0.5-0.9,1.1-1.1l0.7,1.7v4.6L28.4,21z M29.7,22.5v4.6L29,28.9c-0.6-0.1-0.9-0.5-1.1-1.1
		v-6.1l0.4-0.4L29.7,22.5z M34.9,19.7h-1.5l-3.3-3.3v-1.3h1.3l3.5,3.5V19.7z M35.3,19.7v-4.6l0.7-1.7c0.6,0.1,0.9,0.5,1.1,1.1v6.1
		L36.6,21L35.3,19.7z M36.6,21.2l0.4,0.4v6.1c-0.1,0.6-0.5,0.9-1.1,1.1l-0.7-1.7v-4.6L36.6,21.2z" /> </g>
  </symbol>
  <symbol viewBox="0 0 42 42" id="icon-sat">
    <title>sat</title>
    <g id="sat-sat">
      <path d="M8.8,15.3v4.1l-1.3,1.3L7,20.3v-5.7L8.8,15.3z M14.7,28.9H8.1c-0.6-0.1-0.9-0.5-1.1-1.1l1.7-0.7H14L14.7,28.9z M8.8,14.9
		L7,14.2c0.1-0.6,0.5-0.9,1.1-1.1h7c0.6,0.1,0.9,0.5,1.1,1.1l-1.7,0.7H8.8z M14.4,20.1l0.9,0.9l-0.9,0.9H8.8L7.9,21l0.9-0.9H14.4z
		 M15.7,21.2l0.4,0.4v6.1c-0.1,0.6-0.5,0.9-1.1,1.1l-0.7-1.7v-4.6L15.7,21.2z" />
      <path d="M19.7,15.3v4.1l-1.3,1.3L18,20.3v-5.7L19.7,15.3z M19.7,22.5v4.6L19,28.9c-0.6-0.1-0.9-0.5-1.1-1.1v-6.1l0.4-0.4L19.7,22.5
		z M24.9,14.9h-5.2L18,14.2c0.1-0.6,0.5-0.9,1.1-1.1h6.5L24.9,14.9z M25.3,20.1l0.9,0.9l-0.9,0.9h-5.7L18.8,21l0.9-0.9H25.3z
		 M25.3,19.5v-4.6l0.7-1.7c0.6,0.1,0.9,0.5,1.1,1.1v6.1l-0.4,0.4L25.3,19.5z M26.7,21.2l0.4,0.4v6.1c-0.1,0.6-0.5,0.9-1.1,1.1
		l-0.7-1.7v-4.6L26.7,21.2z" />
      <path d="M30.6,14.9l-1.7-0.7c0.1-0.6,0.5-0.9,1.1-1.1h7c0.6,0.1,0.9,0.5,1.1,1.1l-1.7,0.7H30.6z M32.5,19.9v-4.6h1.7v4.6l-0.9,0.9
		L32.5,19.9z M33.4,21.2l0.9,0.9v5.7c-0.1,0.6-0.5,0.9-1.1,1.1l-0.7-1.7v-5L33.4,21.2z" /> </g>
  </symbol>
  <symbol viewBox="0 0 42 42" id="icon-snooze">
    <title>snooze</title>
    <g id="snooze-snooze">
      <path d="M24.4,22.7c0,0-0.3-0.1-0.6-0.4c-0.3-0.3-0.4-0.8-0.4-1.8c0-0.8-0.3-1.2-0.6-1.4c-0.1-0.1-0.2-0.1-0.3-0.2c0,0,0,0,0-0.1
		c0-0.3-0.2-0.5-0.5-0.5s-0.5,0.2-0.5,0.5c0,0,0,0,0,0.1c-0.1,0-0.2,0.1-0.3,0.2c-0.3,0.2-0.6,0.6-0.6,1.4c0,1-0.1,1.5-0.4,1.8
		s-0.6,0.4-0.6,0.4c-0.1,0-0.1,0.1-0.1,0.1l0.1,0.1h4.7c0.1,0,0.1,0,0.1-0.1S24.4,22.8,24.4,22.7z" />
      <path d="M22.4,23.2h-1c-0.1,0-0.1,0.1-0.1,0.1c0,0.3,0.3,0.6,0.6,0.6s0.6-0.3,0.6-0.6C22.6,23.3,22.5,23.2,22.4,23.2z" />
      <path d="M24.4,18.7h-0.5c0,0-0.1,0-0.2,0l0.2-0.2l0.5-0.5v-0.2h-1v0.3h0.4c0.1,0,0.1,0,0.1,0s-0.1,0.1-0.2,0.2l-0.4,0.5V19h1.1
		V18.7z" />
      <path d="M25,18.1l0.1-0.1l0.3-0.3v-0.1h-0.6v0.2h0.3h0.1l-0.1,0.1l-0.3,0.3v0.2h0.7v-0.2h-0.3C25.1,18.1,25.1,18.1,25,18.1z" />
      <path d="M26.1,17.4C26.1,17.4,26,17.4,26.1,17.4L26.1,17.4l0.2-0.3V17h-0.5v0.1H26h0.1c0,0,0,0-0.1,0.1l-0.2,0.2v0.1h0.5v-0.1
		C26.3,17.4,26.1,17.4,26.1,17.4z" /> </g>
  </symbol>
  <symbol viewBox="0 0 42 42" id="icon-sun">
    <title>sun</title>
    <g id="sun-sun">
      <path d="M8,15.3v4.1l-1.3,1.3l-0.4-0.4v-5.7L8,15.3z M13.9,28.9H7.4c-0.6-0.1-0.9-0.5-1.1-1.1L8,27.1h5.2L13.9,28.9z M8,14.9
		l-1.7-0.7c0.1-0.6,0.5-0.9,1.1-1.1h7c0.6,0.1,0.9,0.5,1.1,1.1l-1.7,0.7H8z M13.7,20.1l0.9,0.9l-0.9,0.9H8L7.1,21L8,20.1H13.7z
		 M15,21.2l0.4,0.4v6.1c-0.1,0.6-0.5,0.9-1.1,1.1l-0.7-1.7v-4.6L15,21.2z" />
      <path d="M17.6,21l-0.4-0.4v-6.1c0.1-0.6,0.5-0.9,1.1-1.1l0.7,1.7v4.6L17.6,21z M17.2,27.3v-5.7l0.4-0.4l1.3,1.3v4.1L17.2,27.3z
		 M24.8,28.9h-6.5c-0.6-0.1-0.9-0.5-1.1-1.1l1.7-0.7h5.2L24.8,28.9z M24.6,19.5v-4.6l0.7-1.7c0.6,0.1,0.9,0.5,1.1,1.1v6.1L26,20.8
		L24.6,19.5z M25.9,21.2l0.4,0.4v6.1c-0.1,0.6-0.5,0.9-1.1,1.1l-0.7-1.7v-4.6L25.9,21.2z" />
      <path d="M28.5,21l-0.4-0.4v-6.1c0.1-0.6,0.5-0.9,1.1-1.1l0.7,1.7v4.6L28.5,21z M29.8,22.5v4.6l-0.7,1.7c-0.6-0.1-0.9-0.5-1.1-1.1
		v-6.1l0.4-0.4L29.8,22.5z M35.1,19.7h-1.5l-3.3-3.3v-1.3h1.3l3.5,3.5V19.7z M35.5,19.7v-4.6l0.7-1.7c0.6,0.1,0.9,0.5,1.1,1.1v6.1
		L36.8,21L35.5,19.7z M36.8,21.2l0.4,0.4v6.1c-0.1,0.6-0.5,0.9-1.1,1.1l-0.7-1.7v-4.6L36.8,21.2z" /> </g>
  </symbol>
  <symbol viewBox="0 0 42 42" id="icon-thu">
    <title>thu</title>
    <g id="thu-thu">
      <path d="M7.4,14.9l-1.7-0.7c0.1-0.6,0.5-0.9,1.1-1.1h7c0.6,0.1,0.9,0.5,1.1,1.1L13,14.9H7.4z M9.3,19.9v-4.6H11v4.6l-0.9,0.9
		L9.3,19.9z M10.2,21.2l0.9,0.9v5.7c-0.1,0.6-0.5,0.9-1.1,1.1l-0.7-1.7v-5L10.2,21.2z" />
      <path d="M16.9,21l-0.4-0.4v-6.1c0.1-0.6,0.5-0.9,1.1-1.1l0.7,1.7v4.6L16.9,21z M18.2,22.5v4.6l-0.7,1.7c-0.6-0.1-0.9-0.5-1.1-1.1
		v-6.1l0.4-0.4L18.2,22.5z M23.9,20.1l0.9,0.9l-0.9,0.9h-5.7L17.4,21l0.9-0.9H23.9z M23.9,19.5v-4.6l0.7-1.7
		c0.6,0.1,0.9,0.5,1.1,1.1v6.1l-0.4,0.4L23.9,19.5z M25.2,21.2l0.4,0.4v6.1c-0.1,0.6-0.5,0.9-1.1,1.1l-0.7-1.7v-4.6L25.2,21.2z" />
      <path d="M27.8,21l-0.4-0.4v-6.1c0.1-0.6,0.5-0.9,1.1-1.1l0.7,1.7v4.6L27.8,21z M27.4,27.3v-5.7l0.4-0.4l1.3,1.3v4.1L27.4,27.3z
		 M35,28.9h-6.5c-0.6-0.1-0.9-0.5-1.1-1.1l1.7-0.7h5.2L35,28.9z M34.8,19.5v-4.6l0.7-1.7c0.6,0.1,0.9,0.5,1.1,1.1v6.1l-0.4,0.4
		L34.8,19.5z M36.1,21.2l0.4,0.4v6.1c-0.1,0.6-0.5,0.9-1.1,1.1l-0.7-1.7v-4.6L36.1,21.2z" /> </g>
  </symbol>
  <symbol viewBox="0 0 42 42" id="icon-tue">
    <title>tue</title>
    <g id="tue-tue">
      <path d="M7.7,14.9L6,14.2c0.1-0.6,0.5-0.9,1.1-1.1h7c0.6,0.1,0.9,0.5,1.1,1.1l-1.7,0.7H7.7z M9.6,19.9v-4.6h1.7v4.6l-0.9,0.9
		L9.6,19.9z M10.4,21.2l0.9,0.9v5.7c-0.1,0.6-0.5,0.9-1.1,1.1l-0.7-1.7v-5L10.4,21.2z" />
      <path d="M17.2,21l-0.4-0.4v-6.1c0.1-0.6,0.5-0.9,1.1-1.1l0.7,1.7v4.6L17.2,21z M16.8,27.3v-5.7l0.4-0.4l1.3,1.3v4.1L16.8,27.3z
		 M24.4,28.9h-6.5c-0.6-0.1-0.9-0.5-1.1-1.1l1.7-0.7h5.2L24.4,28.9z M24.2,19.5v-4.6l0.7-1.7c0.6,0.1,0.9,0.5,1.1,1.1v6.1l-0.5,0.4
		L24.2,19.5z M25.5,21.2l0.4,0.4v6.1c-0.1,0.6-0.5,0.9-1.1,1.1l-0.7-1.7v-4.6L25.5,21.2z" />
      <path d="M29.4,15.3v4.1l-1.3,1.3l-0.4-0.4v-5.7L29.4,15.3z M27.8,27.3v-5.7l0.4-0.4l1.3,1.3v4.1L27.8,27.3z M36,28.9h-7.2
		c-0.6-0.1-0.9-0.5-1.1-1.1l1.7-0.7h5.9L36,28.9z M35.3,14.9h-5.9l-1.7-0.7c0.1-0.6,0.5-0.9,1.1-1.1H36L35.3,14.9z M35.1,20.1L36,21
		l-0.9,0.9h-5.7L28.5,21l0.9-0.9H35.1z" /> </g>
  </symbol>
  <symbol viewBox="0 0 42 42" id="icon-wed">
    <title>wed</title>
    <g id="wed-wed_1_">
      <path d="M5.9,20.8l-0.4-0.4v-6.1c0.1-0.6,0.5-0.9,1.1-1.1l0.7,1.7v4.6L5.9,20.8z M5.5,27.3v-5.7l0.4-0.4l1.3,1.3v4.1L5.5,27.3z
		 M13.1,28.9H6.6c-0.6-0.1-0.9-0.5-1.1-1.1l1.7-0.7h5.2L13.1,28.9z M10.9,26.7H9.2v-5l0.9-0.9l0.9,0.9L10.9,26.7L10.9,26.7z
		 M12.9,19.5v-4.6l0.7-1.7c0.6,0.1,0.9,0.5,1.1,1.1v6.1l-0.4,0.4L12.9,19.5z M14.2,21.2l0.4,0.4v6.1c-0.1,0.6-0.5,0.9-1.1,1.1
		l-0.7-1.7v-4.6L14.2,21.2z" />
      <path d="M18.1,15.3v4.1l-1.3,1.3l-0.4-0.4v-5.7L18.1,15.3z M16.4,27.3v-5.7l0.4-0.4l1.3,1.3v4.1L16.4,27.3z M24.7,28.9h-7.2
		c-0.6-0.1-0.9-0.5-1.1-1.1l1.7-0.7H24L24.7,28.9z M24,14.9h-5.9l-1.7-0.7c0.1-0.6,0.5-0.9,1.1-1.1h7.2L24,14.9z M23.8,20.1l0.9,0.9
		l-0.9,0.9h-5.7L17.2,21l0.9-0.9H23.8z" />
      <path d="M34.3,14.9h-5.2l-1.7-0.7v-1.1h7l0.9,0.9L34.3,14.9z M29,15.3v4.1l-1.3,1.4l-0.4-0.4v-5.7L29,15.3z M27.3,27.3v-5.7
		l0.4-0.4l1.3,1.3v4.1L27.3,27.3z M35.1,28l-0.9,0.9h-7v-1.1l1.7-0.7h5.2L35.1,28z M34.7,19.5v-4.6l0.7-0.7l1.1,1.1v5l-0.4,0.4
		L34.7,19.5z M36,21.2l0.4,0.4v5l-1.1,1.1l-0.6-0.6v-4.6L36,21.2z" /> </g>
  </symbol>
</svg>