<?xml version="1.0" encoding="utf-8"?>
<!-- Generator: Adobe Illustrator 19.2.1, SVG Export Plug-In . SVG Version: 6.00 Build 0)  -->
<svg version="1.1" id="am" xmlns="http://www.w3.org/2000/svg" xmlns:xlink="http://www.w3.org/1999/xlink" x="0px" y="0px"
	 viewBox="0 0 42 42" enable-background="new 0 0 42 42" xml:space="preserve">
<g id="bg">
	<g opacity="0.1" enable-background="new    ">
		<path d="M9.7,20.2v-6.9l1.8,1.8v4.7l-1.1,1.1L9.7,20.2z M11.5,22.6v4.7l-1.8,1.8v-6.9l0.7-0.7L11.5,22.6z M19.3,12.9l-1.7,1.8
			h-5.7L10,12.9H19.3z M19.3,29.4H10l1.7-1.8h5.7L19.3,29.4z M17.7,20.3l0.9,0.9L17.7,22h-6.2l-0.9-0.9l0.9-0.9H17.7z M17.8,19.7V15
			l1.8-1.8v6.9l-0.6,0.7L17.8,19.7z M19.6,22.2v6.9l-1.8-1.8v-4.7l1.1-1.1L19.6,22.2z"/>
		<path d="M22.4,20.2v-6.9l1.8,1.8v4.7l-1.1,1.1L22.4,20.2z M24.2,22.6v4.7l-1.8,1.8v-6.9l0.7-0.7L24.2,22.6z M32,12.9l-1.7,1.8
			h-5.7l-1.7-1.8H32z M32,29.4h-9.2l1.7-1.8h5.7L32,29.4z M30.5,20.3l0.9,0.9L30.5,22h-6.2l-0.9-0.9l0.9-0.9H30.5z M30.5,19.7V15
			l1.8-1.8v6.9l-0.6,0.7L30.5,19.7z M32.3,22.2v6.9l-1.8-1.8v-4.7l1.1-1.1L32.3,22.2z"/>
	</g>
</g>
<g id="am_1_">
	<g enable-background="new    ">
		<path d="M9.7,20.2v-6.9l1.8,1.8v4.7l-1.1,1.1L9.7,20.2z M11.5,22.6v5.1l-1.8,1.8v-7.3l0.7-0.7L11.5,22.6z M19.3,12.9l-1.7,1.8
			h-5.7L10,12.9H19.3z M17.7,20.3l0.9,0.9L17.7,22h-6.2l-0.9-0.9l0.9-0.9H17.7z M17.8,19.7V15l1.8-1.8v6.9l-0.6,0.7L17.8,19.7z
			 M19.6,22.2v7.3l-1.8-1.8v-5.1l1.1-1.1L19.6,22.2z"/>
		<path d="M22.4,20.2v-6.9l1.8,1.8v4.7l-1.1,1.1L22.4,20.2z M24.2,22.6v5.1l-1.8,1.8v-7.3l0.7-0.7L24.2,22.6z M32,12.9l-1.7,1.8
			h-5.7l-1.7-1.8H32z M26.5,16l0.9-0.9l0.9,0.9v3.9l-0.9,0.9l-0.9-0.9V16z M30.5,19.7V15l1.8-1.8v6.9l-0.6,0.7L30.5,19.7z
			 M32.3,22.2v7.3l-1.8-1.8v-5.1l1.1-1.1L32.3,22.2z"/>
	</g>
</g>
</svg>
