<?xml version="1.0" encoding="utf-8"?>
<!-- Generator: Adobe Illustrator 19.2.1, SVG Export Plug-In . SVG Version: 6.00 Build 0)  -->
<svg version="1.1" id="bell_1_" xmlns="http://www.w3.org/2000/svg" xmlns:xlink="http://www.w3.org/1999/xlink" x="0px" y="0px"
	 viewBox="0 0 42 42" enable-background="new 0 0 42 42" xml:space="preserve">
<path id="bell" d="M25.2,22.9c0,0.1-0.1,0.1-0.1,0.1h-4.7c-0.1,0-0.1,0-0.1-0.1s0-0.1,0.1-0.1c0,0,0.3-0.1,0.6-0.4
	c0.3-0.3,0.4-0.8,0.4-1.8c0-0.8,0.3-1.2,0.6-1.4c0.1-0.1,0.2-0.1,0.3-0.2c0,0,0,0,0-0.1c0-0.3,0.2-0.5,0.5-0.5s0.5,0.2,0.5,0.5
	c0,0,0,0,0,0.1c0.1,0,0.2,0.1,0.3,0.2c0.3,0.2,0.6,0.6,0.6,1.4c0,1,0.1,1.5,0.4,1.8s0.6,0.4,0.6,0.4C25.1,22.8,25.2,22.8,25.2,22.9z
	 M23.1,23.2h-1c-0.1,0-0.1,0.1-0.1,0.1c0,0.3,0.3,0.6,0.6,0.6s0.6-0.3,0.6-0.6C23.3,23.3,23.2,23.2,23.1,23.2z"/>
</svg>
