<?xml version="1.0" encoding="utf-8"?>
<!-- Generator: Adobe Illustrator 19.2.1, SVG Export Plug-In . SVG Version: 6.00 Build 0)  -->
<svg version="1.1" id="d0_1_" xmlns="http://www.w3.org/2000/svg" xmlns:xlink="http://www.w3.org/1999/xlink" x="0px" y="0px"
	 viewBox="0 0 24 42" enable-background="new 0 0 24 42" xml:space="preserve">
<g id="d0">
	<path d="M10,14.9V19l-1.3,1.3l-0.4-0.4v-5.7L10,14.9z M8.3,26.9v-5.7l0.4-0.4l1.3,1.3v4.1L8.3,26.9z M15.9,28.5H9.4
		c-0.6-0.1-0.9-0.5-1.1-1.1l1.7-0.7h5.2L15.9,28.5z M15.3,14.5H10l-1.7-0.7c0.1-0.6,0.5-0.9,1.1-1.1h6.5L15.3,14.5z M15.7,19.1v-4.6
		l0.7-1.7c0.6,0.1,0.9,0.5,1.1,1.1V20L17,20.4L15.7,19.1z M17,20.8l0.4,0.4v6.1c-0.1,0.6-0.5,0.9-1.1,1.1l-0.7-1.7v-4.6L17,20.8z"/>
</g>
</svg>
