<?xml version="1.0" encoding="utf-8"?>
<!-- Generator: Adobe Illustrator 19.2.1, SVG Export Plug-In . SVG Version: 6.00 Build 0)  -->
<svg version="1.1" id="d1_1_" xmlns="http://www.w3.org/2000/svg" xmlns:xlink="http://www.w3.org/1999/xlink" x="0px" y="0px"
	 viewBox="0 0 24 42" enable-background="new 0 0 24 42" xml:space="preserve">
<g id="d8" opacity="0.1">
	<path d="M9.3,15.3v4.1L8,20.7l-0.4-0.4v-5.7L9.3,15.3z M7.6,27.3v-5.7L8,21.2l1.3,1.3v4.1L7.6,27.3z M15.2,28.8H8.7
		c-0.6-0.1-0.9-0.5-1.1-1.1L9.3,27h5.2L15.2,28.8z M14.6,14.8H9.4l-1.7-0.7c0.1-0.6,0.5-0.9,1.1-1.1h6.5L14.6,14.8z M15,20.1
		l0.9,0.9L15,21.8H9.3l-0.9-0.9L9.3,20H15V20.1z M15,19.4v-4.6l0.7-1.7c0.6,0.1,0.9,0.5,1.1,1.1v6.1l-0.4,0.4L15,19.4z M16.3,21.2
		l0.4,0.4v6.1c-0.1,0.6-0.5,0.9-1.1,1.1L15,27.1v-4.6L16.3,21.2z"/>
</g>
<g id="d1">
	<path d="M15,19.4v-4.6l0.7-1.7c0.6,0.1,0.9,0.5,1.1,1.1v6.1l-0.4,0.4L15,19.4z M16.3,21.1l0.4,0.4v6.1c-0.1,0.6-0.5,0.9-1.1,1.1
		L14.9,27v-4.5L16.3,21.1z"/>
</g>
</svg>
