<?xml version="1.0" encoding="utf-8"?>
<!-- Generator: Adobe Illustrator 19.2.1, SVG Export Plug-In . SVG Version: 6.00 Build 0)  -->
<svg version="1.1" id="d2_1_" xmlns="http://www.w3.org/2000/svg" xmlns:xlink="http://www.w3.org/1999/xlink" x="0px" y="0px"
	 viewBox="0 0 24 42" enable-background="new 0 0 24 42" xml:space="preserve">

<g id="d2" >
	<path d="M7.9,26.8v-5.7l0.4-0.4L9.6,22v4.1L7.9,26.8z M16.1,28.3H8.9c-0.6-0.1-0.9-0.5-1.1-1.1l1.7-0.7h5.9L16.1,28.3z M14.8,14.3
		H9.6l-1.7-0.7C8,13,8.4,12.7,9,12.5h6.5L14.8,14.3z M15.3,19.6l0.9,0.9l-0.9,0.9H9.6l-0.9-0.9l0.9-0.9H15.3z M15.3,18.9v-4.6
		l0.7-1.7c0.6,0.1,0.9,0.5,1.1,1.1v6.1l-0.4,0.4L15.3,18.9z"/>
</g>
</svg>
