<?xml version="1.0" encoding="utf-8"?>
<!-- Generator: Adobe Illustrator 19.2.1, SVG Export Plug-In . SVG Version: 6.00 Build 0)  -->
<svg version="1.1" id="d3_1_" xmlns="http://www.w3.org/2000/svg" xmlns:xlink="http://www.w3.org/1999/xlink" x="0px" y="0px"
	 viewBox="0 0 24 42" enable-background="new 0 0 24 42" xml:space="preserve">
<g id="d3">
	<path d="M15.8,28.7H9.3c-0.6-0.1-0.9-0.5-1.1-1.1l1.7-0.7h5.2L15.8,28.7z M15.1,14.7H9.9L8.2,14c0.1-0.6,0.5-0.9,1.1-1.1h6.5
		L15.1,14.7z M15.6,19.9l0.9,0.9l-0.9,0.9H9.9L9,20.8l0.9-0.9H15.6z M15.6,19.3v-4.6l0.7-1.7c0.6,0.1,0.9,0.5,1.1,1.1v6.1L17,20.6
		L15.6,19.3z M16.9,21l0.4,0.4v6.1c-0.1,0.6-0.5,0.9-1.1,1.1l-0.7-1.7v-4.6L16.9,21z"/>
</g>
</svg>
