<?xml version="1.0" encoding="utf-8"?>
<!-- Generator: Adobe Illustrator 19.2.1, SVG Export Plug-In . SVG Version: 6.00 Build 0)  -->
<svg version="1.1" id="d5_1_" xmlns="http://www.w3.org/2000/svg" xmlns:xlink="http://www.w3.org/1999/xlink" x="0px" y="0px"
	 viewBox="0 0 24 42" enable-background="new 0 0 24 42" xml:space="preserve">
<g id="d5">
	<path d="M9.5,15.1v4.1l-1.3,1.3l-0.4-0.4v-5.7L9.5,15.1z M15.4,28.6H8.9c-0.6-0.1-0.9-0.5-1.1-1.1l1.7-0.7h5.2L15.4,28.6z
		 M15.4,14.6H9.5L7.8,14c0.1-0.6,0.5-0.9,1.1-1.1H16L15.4,14.6z M15.1,19.9l0.9,0.9l-0.9,0.9H9.4l-0.9-0.9l0.9-0.9H15.1z M16.5,20.9
		l0.4,0.4v6.1c-0.1,0.6-0.5,0.9-1.1,1.1l-0.7-1.7v-4.6L16.5,20.9z"/>
</g>
</svg>
