<?xml version="1.0" encoding="utf-8"?>
<!-- Generator: Adobe Illustrator 19.2.1, SVG Export Plug-In . SVG Version: 6.00 Build 0)  -->
<svg version="1.1" id="d6_1_" xmlns="http://www.w3.org/2000/svg" xmlns:xlink="http://www.w3.org/1999/xlink" x="0px" y="0px"
	 viewBox="0 0 24 42" enable-background="new 0 0 24 42" xml:space="preserve">
<g id="d6">
	<path d="M9.8,15.3v4.1l-1.3,1.3L8,20.3v-5.7L9.8,15.3z M8,27.3v-5.7l0.4-0.4l1.3,1.3v4.1L8,27.3z M15.7,28.8H9.2
		c-0.6-0.1-0.9-0.5-1.1-1.1L9.8,27H15L15.7,28.8z M15.7,14.8H9.8L8,14.2c0.1-0.6,0.5-0.9,1.1-1.1h7.2L15.7,14.8z M15.4,20.1l0.9,0.9
		l-0.9,0.9H9.7L8.8,21l0.9-0.9H15.4z M16.7,21.2l0.4,0.4v6.1c-0.1,0.6-0.5,0.9-1.1,1.1l-0.7-1.7v-4.6L16.7,21.2z"/>
</g>
</svg>
