<?xml version="1.0" encoding="utf-8"?>
<!-- Generator: Adobe Illustrator 19.2.1, SVG Export Plug-In . SVG Version: 6.00 Build 0)  -->
<svg version="1.1" id="Layer_1" xmlns="http://www.w3.org/2000/svg" xmlns:xlink="http://www.w3.org/1999/xlink" x="0px" y="0px"
	 viewBox="0 0 24 42" style="enable-background:new 0 0 24 42;" xml:space="preserve">
<style type="text/css">
	.st0{opacity:0.1;enable-background:new    ;}
	.st1{enable-background:new    ;}
</style>
<g id="d8">
	<g class="st0">
		<path d="M7,20.2v-6.9L8.8,15v4.7l-1.1,1.1L7,20.2z M8.8,22.6v4.7L7,29.1v-6.9l0.7-0.7L8.8,22.6z M16.6,12.9l-1.7,1.8H9.1l-1.7-1.8
			H16.6z M16.6,29.4H7.4l1.7-1.8h5.7L16.6,29.4z M15.1,20.3l0.9,0.9L15.1,22H8.9L8,21.2l0.9-0.9C8.9,20.3,15.1,20.3,15.1,20.3z
			 M15.2,19.7V15l1.8-1.8v6.9l-0.6,0.7L15.2,19.7z M17,22.2v6.9l-1.8-1.8v-4.7l1.1-1.1L17,22.2z"/>
	</g>
</g>
<g id="d8f">
	<g class="st1">
		<path d="M7,20.2v-6.9L8.8,15v4.7l-1.1,1.1L7,20.2z M8.8,22.6v4.7L7,29.1v-6.9l0.7-0.7L8.8,22.6z M16.6,12.9l-1.7,1.8H9.1l-1.7-1.8
			H16.6z M16.6,29.4H7.4l1.7-1.8h5.7L16.6,29.4z M15.1,20.3l0.9,0.9L15.1,22H8.9L8,21.2l0.9-0.9C8.9,20.3,15.1,20.3,15.1,20.3z
			 M15.2,19.7V15l1.8-1.8v6.9l-0.6,0.7L15.2,19.7z M17,22.2v6.9l-1.8-1.8v-4.7l1.1-1.1L17,22.2z"/>
	</g>
</g>
</svg>
