<?xml version="1.0" encoding="utf-8"?>
<!-- Generator: Adobe Illustrator 19.2.1, SVG Export Plug-In . SVG Version: 6.00 Build 0)  -->
<svg version="1.1" id="d9_1_" xmlns="http://www.w3.org/2000/svg" xmlns:xlink="http://www.w3.org/1999/xlink" x="0px" y="0px"
	 viewBox="0 0 24 42" enable-background="new 0 0 24 42" xml:space="preserve">
<g id="d9">
	<path d="M9.6,15.2v4.1l-1.3,1.3l-0.4-0.4v-5.7L9.6,15.2z M15.5,28.7H9c-0.6-0.1-0.9-0.5-1.1-1.1l1.7-0.7h5.2L15.5,28.7z M14.9,14.7
		H9.7L8,14c0.1-0.6,0.5-0.9,1.1-1.1h6.5L14.9,14.7z M15.3,20l0.9,0.9l-0.9,0.9H9.6l-0.9-0.9L9.6,20H15.3z M15.3,19.3v-4.6L16,13
		c0.6,0.1,0.9,0.5,1.1,1.1v6.1l-0.4,0.4L15.3,19.3z M16.6,21.1l0.4,0.4v6.1c-0.1,0.6-0.5,0.9-1.1,1.1L15.3,27v-4.6L16.6,21.1z"/>
</g>
</svg>
