<?xml version="1.0" encoding="utf-8"?>
<!-- Generator: Adobe Illustrator 19.2.1, SVG Export Plug-In . SVG Version: 6.00 Build 0)  -->
<svg version="1.1" id="fri_1_" xmlns="http://www.w3.org/2000/svg" xmlns:xlink="http://www.w3.org/1999/xlink" x="0px" y="0px"
	 viewBox="0 0 42 42" enable-background="new 0 0 42 42" xml:space="preserve">
<g id="fri">
	<path d="M9.1,15.3v4.1l-1.3,1.3l-0.4-0.4v-5.7L9.1,15.3z M9.1,22.5v4.6l-0.7,1.7c-0.6-0.1-0.9-0.5-1.1-1.1v-6.1l0.4-0.4L9.1,22.5z
		 M15,14.9H9.2l-1.7-0.7c0.1-0.6,0.5-0.9,1.1-1.1h7.2L15,14.9z M14.8,20.1l0.9,0.9l-0.9,0.9H9.1L8.3,21l0.9-0.9H14.8z"/>
	<path d="M20,15.3v4.1l-1.3,1.3l-0.4-0.4v-5.7L20,15.3z M20,22.5v4.6l-0.7,1.7c-0.6-0.1-0.9-0.5-1.1-1.1v-6.1l0.4-0.4L20,22.5z
		 M25.3,14.9h-5.2l-1.7-0.7c0.1-0.6,0.5-0.9,1.1-1.1H26L25.3,14.9z M25.7,20.1l0.9,0.9l-0.9,0.9H20L19.2,21l0.9-0.9H25.7z
		 M20.5,22.3h1.3l5.7,5.7c-0.3,0.6-0.9,0.9-1.7,0.9l-5.2-5.2L20.5,22.3L20.5,22.3z M25.7,19.5v-4.6l0.7-1.7c0.6,0.1,0.9,0.5,1.1,1.1
		v6.1L27,20.8L25.7,19.5z"/>
	<path d="M32.7,19.5v-4.6l0.7-1.7c0.6,0.1,0.9,0.5,1.1,1.1v6.1L34,20.8L32.7,19.5z M34,21l0.4,0.4v6.1c-0.1,0.6-0.5,0.9-1.1,1.1
		l-0.7-1.7v-4.6L34,21z"/>
</g>
</svg>
