<?xml version="1.0" encoding="utf-8"?>
<!-- Generator: Adobe Illustrator 19.2.1, SVG Export Plug-In . SVG Version: 6.00 Build 0)  -->
<svg version="1.1" id="fri" xmlns="http://www.w3.org/2000/svg" xmlns:xlink="http://www.w3.org/1999/xlink" x="0px" y="0px"
	 viewBox="0 0 42 42" style="enable-background:new 0 0 42 42;" xml:space="preserve">
<style type="text/css">
	.st0{enable-background:new    ;}
</style>
<g class="st0">
	<path d="M6.6,19.9v-5.9l2.3,2.2v3.1l-1.4,1.5L6.6,19.9z M8.9,23v3.1l-2.3,2.3v-5.9l0.9-0.9L8.9,23z M16.3,13.5L14,15.8H9.3
		l-2.3-2.3H16.3z M13.9,20l1.1,1.1l-1.1,1.1H9l-1.1-1.1L9,20H13.9z"/>
	<path d="M18.8,19.9v-5.9l2.3,2.2v3.1l-1.4,1.5L18.8,19.9z M21.1,23v3.5l-2.3,2.3v-6.3l0.9-0.9L21.1,23z M27,14.6l-1.1,1.1h-4.3
		l-2.3-2.3h6.5L27,14.6z M26.1,20l1.1,1.1l-1.1,1.1h-4.8l-1.1-1.1l1.1-1.1H26.1z M22.1,24.4v-1.6l1.6,0l4.4,4.4l0,1.6h-1.6
		L22.1,24.4z M28.5,19.9l-0.9,0.9l-1.4-1.4v-3.1l1.1-1.1l1.1,1.1V19.9z"/>
	<path d="M32.1,19.3v-3.5l2.3-2.3v6.4l-0.9,0.9L32.1,19.3z M34.4,22.4v6.4l-2.3-2.3V23l1.4-1.4L34.4,22.4z"/>
</g>
</svg>
