<?xml version="1.0" encoding="utf-8"?>
<!-- Generator: Adobe Illustrator 19.2.1, SVG Export Plug-In . SVG Version: 6.00 Build 0)  -->
<svg version="1.1" id="mon_1_" xmlns="http://www.w3.org/2000/svg" xmlns:xlink="http://www.w3.org/1999/xlink" x="0px" y="0px"
	 viewBox="0 0 42 42" enable-background="new 0 0 42 42" xml:space="preserve">
<g id="mon">
	<path d="M7.8,15.3v4.1l-1.3,1.3l-0.4-0.4v-5.7L7.8,15.3z M7.8,22.5v4.6l-0.7,1.7c-0.6-0.1-0.9-0.5-1.1-1.1v-6.1l0.4-0.4L7.8,22.5z
		 M13.1,14.9H7.9l-1.7-0.7c0.1-0.6,0.5-0.9,1.1-1.1h6.5L13.1,14.9z M11.6,20.3l-0.9,0.9l-0.9-0.9v-5h1.7L11.6,20.3L11.6,20.3z
		 M13.5,19.5v-4.6l0.7-1.7c0.6,0.1,0.9,0.5,1.1,1.1v6.1l-0.4,0.4L13.5,19.5z M14.8,21.2l0.4,0.4v6.1c-0.1,0.6-0.5,0.9-1.1,1.1
		l-0.7-1.7v-4.6L14.8,21.2z"/>
	<path d="M17.4,20.8L17,20.3v-5l1.1-1.1l0.7,0.7v4.6L17.4,20.8z M18.8,22.5v4.6l-0.7,0.7L17,26.7v-5l0.4-0.4L18.8,22.5z M24,14.9
		h-4.8L18.3,14l0.9-0.9H24l0.9,0.9L24,14.9z M24.9,28L24,28.9h-4.8L18.3,28l0.9-0.9H24L24.9,28z M24.4,19.5v-4.6l0.7-0.7l1.1,1.1v5
		l-0.4,0.4L24.4,19.5z M25.7,21.2l0.4,0.4v5L25,27.7L24.3,27v-4.6L25.7,21.2z"/>
	<path d="M28.4,21L28,20.6v-6.1c0.1-0.6,0.5-0.9,1.1-1.1l0.7,1.7v4.6L28.4,21z M29.7,22.5v4.6L29,28.9c-0.6-0.1-0.9-0.5-1.1-1.1
		v-6.1l0.4-0.4L29.7,22.5z M34.9,19.7h-1.5l-3.3-3.3v-1.3h1.3l3.5,3.5V19.7z M35.3,19.7v-4.6l0.7-1.7c0.6,0.1,0.9,0.5,1.1,1.1v6.1
		L36.6,21L35.3,19.7z M36.6,21.2l0.4,0.4v6.1c-0.1,0.6-0.5,0.9-1.1,1.1l-0.7-1.7v-4.6L36.6,21.2z"/>
</g>
</svg>
