<?xml version="1.0" encoding="utf-8"?>
<!-- Generator: Adobe Illustrator 19.2.1, SVG Export Plug-In . SVG Version: 6.00 Build 0)  -->
<svg version="1.1" id="mon" xmlns="http://www.w3.org/2000/svg" xmlns:xlink="http://www.w3.org/1999/xlink" x="0px" y="0px"
	 viewBox="0 0 42 42" style="enable-background:new 0 0 42 42;" xml:space="preserve">
<style type="text/css">
	.st0{enable-background:new    ;}
</style>
<g class="st0">
	<path d="M3.9,19.9v-5.9l2.3,2.2v3.1l-1.4,1.5L3.9,19.9z M6.2,23v3.5l-2.3,2.3v-6.4l0.9-0.9L6.2,23z M13.2,13.5l-2.3,2.3H6.6
		l-2.3-2.3H13.2z M7.7,17.4l1.1-1.1l1.1,1.1v4.5l-1.1,1.2l-1.1-1.2V17.4z M11.3,19.3v-3.1l2.3-2.2v5.9l-0.9,0.9L11.3,19.3z
		 M13.6,22.4v6.3l-2.3-2.3V23l1.4-1.4L13.6,22.4z"/>
	<path d="M18.4,19.3L17,20.7l-0.9-0.9v-3.6l1.1-1.1l1.1,1.1V19.3z M16.2,26.1l1.1,1.1l1.1-1.1V23L17,21.6l-0.9,0.9V26.1z M24.3,14.6
		l-1.1,1.1h-4.3l-1.1-1.1l1.1-1.1h4.3L24.3,14.6z M18.9,28.8l-1.1-1.1l1.1-1.1h4.3l1.1,1.1l-1.1,1.1H18.9z M25.8,19.9L25,20.7
		l-1.4-1.4v-3.1l1.1-1.1l1.1,1.1V19.9z M25.8,26.1l-1.1,1.1l-1.1-1.1V23l1.4-1.4l0.9,0.9V26.1z"/>
	<path d="M28.4,19.9v-6.3l2.3,2.3l0,3.5l-1.4,1.4L28.4,19.9z M30.6,23v3.5l-2.3,2.3v-6.4l0.9-0.9L30.6,23z M29,13.5l3.3,0l3,3.1
		l0,1.6h-1.6L29,13.5z M35.8,19.3v-3.5l2.3-2.3v6.3l-0.9,0.9L35.8,19.3z M38,22.4v6.3l-2.3-2.3V23l1.4-1.4L38,22.4z"/>
</g>
</svg>
