<?xml version="1.0" encoding="utf-8"?>
<!-- Generator: Adobe Illustrator 19.2.1, SVG Export Plug-In . SVG Version: 6.00 Build 0)  -->
<svg version="1.1" id="sat" xmlns="http://www.w3.org/2000/svg" xmlns:xlink="http://www.w3.org/1999/xlink" x="0px" y="0px"
	 viewBox="0 0 42 42" style="enable-background:new 0 0 42 42;" xml:space="preserve">
<g>
	<path d="M6.2,19.3l-1.4,1.4l-0.9-0.9v-3.6l1.1-1.1l1.1,1.1V19.3z M5.1,28.8l-1.1-1.1l1.1-1.1h5.8l1.1,1.1l-1.1,1.1H5.1z M11.2,20
		l1.1,1.1l-1.1,1.1H6.4l-1.1-1.1L6.4,20H11.2z M13.6,14.6l-1.1,1.1H6.6l-1.1-1.1l1.1-1.1h5.8L13.6,14.6z M13.6,26.1l-1.1,1.1
		l-1.1-1.1V23l1.4-1.4l0.9,0.9V26.1z"/>
	<path d="M16.2,19.9v-5.9l2.3,2.2v3.1L17,20.7L16.2,19.9z M18.4,23v3.5l-2.3,2.3v-6.4l0.9-0.9L18.4,23z M25.4,13.5l-2.3,2.3h-4.3
		l-2.3-2.3H25.4z M23.4,20l1.1,1.1l-1.1,1.1h-4.8l-1.1-1.1l1.1-1.1H23.4z M23.6,19.3v-3.1l2.3-2.2v5.9L25,20.7L23.6,19.3z
		 M25.8,22.4v6.3l-2.3-2.3V23l1.4-1.4L25.8,22.4z"/>
	<path d="M38.6,14.6l-1.2,1.1H29l-1.1-1.1l1.1-1.1h8.4L38.6,14.6z M34.4,19.8l-0.9,0.9l-1.4-1.4v-1.8l1.1-1.1l1.1,1.1V19.8z
		 M34.4,27.7l-1.1,1.1l-1.1-1.1V23l1.4-1.4l0.9,0.8V27.7z"/>
</g>
</svg>
