<?xml version="1.0" encoding="utf-8"?>
<!-- Generator: Adobe Illustrator 19.2.1, SVG Export Plug-In . SVG Version: 6.00 Build 0)  -->
<svg version="1.1" id="sat_1_" xmlns="http://www.w3.org/2000/svg" xmlns:xlink="http://www.w3.org/1999/xlink" x="0px" y="0px"
	 viewBox="0 0 42 42" enable-background="new 0 0 42 42" xml:space="preserve">
<g id="sat">
	<path d="M8.8,15.3v4.1l-1.3,1.3L7,20.3v-5.7L8.8,15.3z M14.7,28.9H8.1c-0.6-0.1-0.9-0.5-1.1-1.1l1.7-0.7H14L14.7,28.9z M8.8,14.9
		L7,14.2c0.1-0.6,0.5-0.9,1.1-1.1h7c0.6,0.1,0.9,0.5,1.1,1.1l-1.7,0.7H8.8z M14.4,20.1l0.9,0.9l-0.9,0.9H8.8L7.9,21l0.9-0.9H14.4z
		 M15.7,21.2l0.4,0.4v6.1c-0.1,0.6-0.5,0.9-1.1,1.1l-0.7-1.7v-4.6L15.7,21.2z"/>
	<path d="M19.7,15.3v4.1l-1.3,1.3L18,20.3v-5.7L19.7,15.3z M19.7,22.5v4.6L19,28.9c-0.6-0.1-0.9-0.5-1.1-1.1v-6.1l0.4-0.4L19.7,22.5
		z M24.9,14.9h-5.2L18,14.2c0.1-0.6,0.5-0.9,1.1-1.1h6.5L24.9,14.9z M25.3,20.1l0.9,0.9l-0.9,0.9h-5.7L18.8,21l0.9-0.9H25.3z
		 M25.3,19.5v-4.6l0.7-1.7c0.6,0.1,0.9,0.5,1.1,1.1v6.1l-0.4,0.4L25.3,19.5z M26.7,21.2l0.4,0.4v6.1c-0.1,0.6-0.5,0.9-1.1,1.1
		l-0.7-1.7v-4.6L26.7,21.2z"/>
	<path d="M30.6,14.9l-1.7-0.7c0.1-0.6,0.5-0.9,1.1-1.1h7c0.6,0.1,0.9,0.5,1.1,1.1l-1.7,0.7H30.6z M32.5,19.9v-4.6h1.7v4.6l-0.9,0.9
		L32.5,19.9z M33.4,21.2l0.9,0.9v5.7c-0.1,0.6-0.5,0.9-1.1,1.1l-0.7-1.7v-5L33.4,21.2z"/>
</g>
</svg>
