<?xml version="1.0" encoding="utf-8"?>
<!-- Generator: Adobe Illustrator 19.2.1, SVG Export Plug-In . SVG Version: 6.00 Build 0)  -->
<svg version="1.1" id="snooze_1_" xmlns="http://www.w3.org/2000/svg" xmlns:xlink="http://www.w3.org/1999/xlink" x="0px" y="0px"
	 viewBox="0 0 42 42" enable-background="new 0 0 42 42" xml:space="preserve">
<g id="snooze">
	<path d="M24.4,22.7c0,0-0.3-0.1-0.6-0.4c-0.3-0.3-0.4-0.8-0.4-1.8c0-0.8-0.3-1.2-0.6-1.4c-0.1-0.1-0.2-0.1-0.3-0.2c0,0,0,0,0-0.1
		c0-0.3-0.2-0.5-0.5-0.5s-0.5,0.2-0.5,0.5c0,0,0,0,0,0.1c-0.1,0-0.2,0.1-0.3,0.2c-0.3,0.2-0.6,0.6-0.6,1.4c0,1-0.1,1.5-0.4,1.8
		s-0.6,0.4-0.6,0.4c-0.1,0-0.1,0.1-0.1,0.1l0.1,0.1h4.7c0.1,0,0.1,0,0.1-0.1S24.4,22.8,24.4,22.7z"/>
	<path d="M22.4,23.2h-1c-0.1,0-0.1,0.1-0.1,0.1c0,0.3,0.3,0.6,0.6,0.6s0.6-0.3,0.6-0.6C22.6,23.3,22.5,23.2,22.4,23.2z"/>
	<path d="M24.4,18.7h-0.5c0,0-0.1,0-0.2,0l0.2-0.2l0.5-0.5v-0.2h-1v0.3h0.4c0.1,0,0.1,0,0.1,0s-0.1,0.1-0.2,0.2l-0.4,0.5V19h1.1
		V18.7z"/>
	<path d="M25,18.1l0.1-0.1l0.3-0.3v-0.1h-0.6v0.2h0.3h0.1l-0.1,0.1l-0.3,0.3v0.2h0.7v-0.2h-0.3C25.1,18.1,25.1,18.1,25,18.1z"/>
	<path d="M26.1,17.4C26.1,17.4,26,17.4,26.1,17.4L26.1,17.4l0.2-0.3V17h-0.5v0.1H26h0.1c0,0,0,0-0.1,0.1l-0.2,0.2v0.1h0.5v-0.1
		C26.3,17.4,26.1,17.4,26.1,17.4z"/>
</g>
</svg>
