<?xml version="1.0" encoding="utf-8"?>
<!-- Generator: Adobe Illustrator 19.2.1, SVG Export Plug-In . SVG Version: 6.00 Build 0)  -->
<svg version="1.1" id="sun_1_" xmlns="http://www.w3.org/2000/svg" xmlns:xlink="http://www.w3.org/1999/xlink" x="0px" y="0px"
	 viewBox="0 0 42 42" enable-background="new 0 0 42 42" xml:space="preserve">
<g id="sun">
	<path d="M8,15.3v4.1l-1.3,1.3l-0.4-0.4v-5.7L8,15.3z M13.9,28.9H7.4c-0.6-0.1-0.9-0.5-1.1-1.1L8,27.1h5.2L13.9,28.9z M8,14.9
		l-1.7-0.7c0.1-0.6,0.5-0.9,1.1-1.1h7c0.6,0.1,0.9,0.5,1.1,1.1l-1.7,0.7H8z M13.7,20.1l0.9,0.9l-0.9,0.9H8L7.1,21L8,20.1H13.7z
		 M15,21.2l0.4,0.4v6.1c-0.1,0.6-0.5,0.9-1.1,1.1l-0.7-1.7v-4.6L15,21.2z"/>
	<path d="M17.6,21l-0.4-0.4v-6.1c0.1-0.6,0.5-0.9,1.1-1.1l0.7,1.7v4.6L17.6,21z M17.2,27.3v-5.7l0.4-0.4l1.3,1.3v4.1L17.2,27.3z
		 M24.8,28.9h-6.5c-0.6-0.1-0.9-0.5-1.1-1.1l1.7-0.7h5.2L24.8,28.9z M24.6,19.5v-4.6l0.7-1.7c0.6,0.1,0.9,0.5,1.1,1.1v6.1L26,20.8
		L24.6,19.5z M25.9,21.2l0.4,0.4v6.1c-0.1,0.6-0.5,0.9-1.1,1.1l-0.7-1.7v-4.6L25.9,21.2z"/>
	<path d="M28.5,21l-0.4-0.4v-6.1c0.1-0.6,0.5-0.9,1.1-1.1l0.7,1.7v4.6L28.5,21z M29.8,22.5v4.6l-0.7,1.7c-0.6-0.1-0.9-0.5-1.1-1.1
		v-6.1l0.4-0.4L29.8,22.5z M35.1,19.7h-1.5l-3.3-3.3v-1.3h1.3l3.5,3.5V19.7z M35.5,19.7v-4.6l0.7-1.7c0.6,0.1,0.9,0.5,1.1,1.1v6.1
		L36.8,21L35.5,19.7z M36.8,21.2l0.4,0.4v6.1c-0.1,0.6-0.5,0.9-1.1,1.1l-0.7-1.7v-4.6L36.8,21.2z"/>
</g>
</svg>
