<?xml version="1.0" encoding="utf-8"?>
<!-- Generator: Adobe Illustrator 19.2.1, SVG Export Plug-In . SVG Version: 6.00 Build 0)  -->
<svg version="1.1" id="sun" xmlns="http://www.w3.org/2000/svg" xmlns:xlink="http://www.w3.org/1999/xlink" x="0px" y="0px"
	 viewBox="0 0 42 42" style="enable-background:new 0 0 42 42;" xml:space="preserve">
<style type="text/css">
	.st0{enable-background:new    ;}
</style>
<g class="st0">
	<path d="M6.2,19.3l-1.4,1.4l-0.9-0.9v-3.6l1.1-1.1l1.1,1.1V19.3z M5.1,28.8l-1.1-1.1l1.1-1.1h5.8l1.1,1.1l-1.1,1.1H5.1z M11.2,20
		l1.1,1.1l-1.1,1.1H6.4l-1.1-1.1L6.4,20H11.2z M13.6,14.6l-1.1,1.1H6.6l-1.1-1.1l1.1-1.1h5.8L13.6,14.6z M13.6,26.1l-1.1,1.1
		l-1.1-1.1V23l1.4-1.4l0.9,0.9V26.1z"/>
	<path d="M16.2,13.5l2.3,2.3v3.5L17,20.7l-0.9-0.9V13.5z M16.2,26.1l1.1,1.1l1.1-1.1V23L17,21.6l-0.9,0.9V26.1z M18.9,28.8l-1.1-1.1
		l1.1-1.1h4.3l1.1,1.1l-1.1,1.1H18.9z M25.8,19.9L25,20.7l-1.4-1.4v-3.5l2.3-2.3V19.9z M25.8,26.1l-1.1,1.1l-1.1-1.1V23l1.4-1.4
		l0.9,0.9V26.1z"/>
	<path d="M28.4,19.9v-6.3l2.3,2.3l0,3.5l-1.4,1.4L28.4,19.9z M30.6,23v3.5l-2.3,2.3v-6.4l0.9-0.9L30.6,23z M29,13.5l3.3,0l3,3.1
		l0,1.6h-1.6L29,13.5z M35.8,19.3v-3.5l2.3-2.3v6.3l-0.9,0.9L35.8,19.3z M38,22.4v6.3l-2.3-2.3V23l1.4-1.4L38,22.4z"/>
</g>
</svg>
