<?xml version="1.0" encoding="utf-8"?>
<!-- Generator: Adobe Illustrator 19.2.1, SVG Export Plug-In . SVG Version: 6.00 Build 0)  -->
<svg version="1.1" id="thu_1_" xmlns="http://www.w3.org/2000/svg" xmlns:xlink="http://www.w3.org/1999/xlink" x="0px" y="0px"
	 viewBox="0 0 42 42" enable-background="new 0 0 42 42" xml:space="preserve">
<g id="thu">
	<path d="M7.4,14.9l-1.7-0.7c0.1-0.6,0.5-0.9,1.1-1.1h7c0.6,0.1,0.9,0.5,1.1,1.1L13,14.9H7.4z M9.3,19.9v-4.6H11v4.6l-0.9,0.9
		L9.3,19.9z M10.2,21.2l0.9,0.9v5.7c-0.1,0.6-0.5,0.9-1.1,1.1l-0.7-1.7v-5L10.2,21.2z"/>
	<path d="M16.9,21l-0.4-0.4v-6.1c0.1-0.6,0.5-0.9,1.1-1.1l0.7,1.7v4.6L16.9,21z M18.2,22.5v4.6l-0.7,1.7c-0.6-0.1-0.9-0.5-1.1-1.1
		v-6.1l0.4-0.4L18.2,22.5z M23.9,20.1l0.9,0.9l-0.9,0.9h-5.7L17.4,21l0.9-0.9H23.9z M23.9,19.5v-4.6l0.7-1.7
		c0.6,0.1,0.9,0.5,1.1,1.1v6.1l-0.4,0.4L23.9,19.5z M25.2,21.2l0.4,0.4v6.1c-0.1,0.6-0.5,0.9-1.1,1.1l-0.7-1.7v-4.6L25.2,21.2z"/>
	<path d="M27.8,21l-0.4-0.4v-6.1c0.1-0.6,0.5-0.9,1.1-1.1l0.7,1.7v4.6L27.8,21z M27.4,27.3v-5.7l0.4-0.4l1.3,1.3v4.1L27.4,27.3z
		 M35,28.9h-6.5c-0.6-0.1-0.9-0.5-1.1-1.1l1.7-0.7h5.2L35,28.9z M34.8,19.5v-4.6l0.7-1.7c0.6,0.1,0.9,0.5,1.1,1.1v6.1l-0.4,0.4
		L34.8,19.5z M36.1,21.2l0.4,0.4v6.1c-0.1,0.6-0.5,0.9-1.1,1.1l-0.7-1.7v-4.6L36.1,21.2z"/>
</g>
</svg>
