<?xml version="1.0" encoding="utf-8"?>
<!-- Generator: Adobe Illustrator 19.2.1, SVG Export Plug-In . SVG Version: 6.00 Build 0)  -->
<svg version="1.1" id="thu" xmlns="http://www.w3.org/2000/svg" xmlns:xlink="http://www.w3.org/1999/xlink" x="0px" y="0px"
	 viewBox="0 0 42 42" style="enable-background:new 0 0 42 42;" xml:space="preserve">
<style type="text/css">
	.st0{enable-background:new    ;}
</style>
<g class="st0">
	<path d="M14.1,14.6L13,15.8H4.6l-1.1-1.1l1.1-1.1H13L14.1,14.6z M9.9,19.8l-0.9,0.9l-1.4-1.4v-1.8l1.1-1.1l1.1,1.1V19.8z M9.9,27.7
		l-1.1,1.1l-1.1-1.1V23l1.4-1.4l0.9,0.9V27.7z"/>
	<path d="M16.2,19.9v-6.4l2.3,2.3v3.5L17,20.7L16.2,19.9z M18.4,23v3.5l-2.3,2.3v-6.4l0.9-0.9L18.4,23z M23.4,20l1.1,1.1l-1.1,1.1
		h-4.8l-1.1-1.1l1.1-1.1H23.4z M23.6,19.3v-3.5l2.3-2.3v6.3L25,20.7L23.6,19.3z M25.8,22.4v6.3l-2.3-2.3V23l1.4-1.4L25.8,22.4z"/>
	<path d="M28.4,13.5l2.3,2.3v3.5l-1.4,1.4l-0.9-0.9V13.5z M28.4,26.1l1.1,1.1l1.1-1.1V23l-1.4-1.4l-0.9,0.9V26.1z M31.1,28.8
		l-1.1-1.1l1.1-1.1h4.3l1.1,1.1l-1.1,1.1H31.1z M38,19.9l-0.9,0.9l-1.4-1.4v-3.5l2.3-2.3V19.9z M38,26.1l-1.1,1.1l-1.1-1.1V23
		l1.4-1.4l0.9,0.9V26.1z"/>
</g>
</svg>
