<?xml version="1.0" encoding="utf-8"?>
<!-- Generator: Adobe Illustrator 19.2.1, SVG Export Plug-In . SVG Version: 6.00 Build 0)  -->
<svg version="1.1" id="tue" xmlns="http://www.w3.org/2000/svg" xmlns:xlink="http://www.w3.org/1999/xlink" x="0px" y="0px"
	 viewBox="0 0 42 42" style="enable-background:new 0 0 42 42;" xml:space="preserve">
<style type="text/css">
	.st0{enable-background:new    ;}
</style>
<g class="st0">
	<path d="M14.1,14.6L13,15.8H4.6l-1.1-1.1l1.1-1.1H13L14.1,14.6z M9.9,19.8l-0.9,0.9l-1.4-1.4v-1.8l1.1-1.1l1.1,1.1V19.8z M9.9,27.7
		l-1.1,1.1l-1.1-1.1V23l1.4-1.4l0.9,0.9V27.7z"/>
	<path d="M16.2,13.5l2.3,2.3v3.5L17,20.7l-0.9-0.9V13.5z M16.2,26.1l1.1,1.1l1.1-1.1V23L17,21.6l-0.9,0.9V26.1z M18.9,28.8l-1.1-1.1
		l1.1-1.1h4.3l1.1,1.1l-1.1,1.1H18.9z M25.8,19.9L25,20.7l-1.4-1.4v-3.5l2.3-2.3V19.9z M25.8,26.1l-1.1,1.1l-1.1-1.1V23l1.4-1.4
		l0.9,0.9V26.1z"/>
	<path d="M28.4,19.9v-5.9l2.3,2.2v3.1l-1.4,1.5L28.4,19.9z M30.6,23v3.1l-2.3,2.3v-5.9l0.9-0.9L30.6,23z M38,13.5l-2.3,2.3h-4.7
		l-2.3-2.3H38z M38,28.8h-9.2l2.3-2.3h4.7L38,28.8z M35.6,20l1.1,1.1l-1.1,1.1h-4.8l-1.1-1.1l1.1-1.1H35.6z"/>
</g>
</svg>
