<?xml version="1.0" encoding="utf-8"?>
<!-- Generator: Adobe Illustrator 19.2.1, SVG Export Plug-In . SVG Version: 6.00 Build 0)  -->
<svg version="1.1" id="tue_1_" xmlns="http://www.w3.org/2000/svg" xmlns:xlink="http://www.w3.org/1999/xlink" x="0px" y="0px"
	 viewBox="0 0 42 42" enable-background="new 0 0 42 42" xml:space="preserve">
<g id="tue">
	<path d="M7.7,14.9L6,14.2c0.1-0.6,0.5-0.9,1.1-1.1h7c0.6,0.1,0.9,0.5,1.1,1.1l-1.7,0.7H7.7z M9.6,19.9v-4.6h1.7v4.6l-0.9,0.9
		L9.6,19.9z M10.4,21.2l0.9,0.9v5.7c-0.1,0.6-0.5,0.9-1.1,1.1l-0.7-1.7v-5L10.4,21.2z"/>
	<path d="M17.2,21l-0.4-0.4v-6.1c0.1-0.6,0.5-0.9,1.1-1.1l0.7,1.7v4.6L17.2,21z M16.8,27.3v-5.7l0.4-0.4l1.3,1.3v4.1L16.8,27.3z
		 M24.4,28.9h-6.5c-0.6-0.1-0.9-0.5-1.1-1.1l1.7-0.7h5.2L24.4,28.9z M24.2,19.5v-4.6l0.7-1.7c0.6,0.1,0.9,0.5,1.1,1.1v6.1l-0.5,0.4
		L24.2,19.5z M25.5,21.2l0.4,0.4v6.1c-0.1,0.6-0.5,0.9-1.1,1.1l-0.7-1.7v-4.6L25.5,21.2z"/>
	<path d="M29.4,15.3v4.1l-1.3,1.3l-0.4-0.4v-5.7L29.4,15.3z M27.8,27.3v-5.7l0.4-0.4l1.3,1.3v4.1L27.8,27.3z M36,28.9h-7.2
		c-0.6-0.1-0.9-0.5-1.1-1.1l1.7-0.7h5.9L36,28.9z M35.3,14.9h-5.9l-1.7-0.7c0.1-0.6,0.5-0.9,1.1-1.1H36L35.3,14.9z M35.1,20.1L36,21
		l-0.9,0.9h-5.7L28.5,21l0.9-0.9H35.1z"/>
</g>
</svg>
