<?xml version="1.0" encoding="utf-8"?>
<!-- Generator: Adobe Illustrator 19.2.1, SVG Export Plug-In . SVG Version: 6.00 Build 0)  -->
<svg version="1.1" id="wed" xmlns="http://www.w3.org/2000/svg" xmlns:xlink="http://www.w3.org/1999/xlink" x="0px" y="0px"
	 viewBox="0 0 42 42" style="enable-background:new 0 0 42 42;" xml:space="preserve">
<style type="text/css">
	.st0{enable-background:new    ;}
</style>
<g class="st0">
	<path d="M6.2,19.3l-1.4,1.4l-0.9-0.9v-6.3l2.3,2.3V19.3z M6.2,26.1l-2.3,2.3v-5.9l0.9-0.9L6.2,23V26.1z M13.2,28.8H4.4l2.3-2.3h4.2
		L13.2,28.8z M10,24.8L8.9,26l-1.1-1.1v-4.5l1.1-1.2l1.1,1.2V24.8z M13.6,19.9l-0.9,0.9l-1.4-1.4v-3.5l2.3-2.3V19.9z M13.6,28.3
		l-2.3-2.3V23l1.4-1.4l0.9,0.9V28.3z"/>
	<path d="M16.2,19.9v-5.9l2.3,2.2v3.1L17,20.7L16.2,19.9z M18.4,23v3.1l-2.3,2.3v-5.9l0.9-0.9L18.4,23z M25.8,13.5l-2.3,2.3h-4.7
		l-2.3-2.3H25.8z M25.8,28.8h-9.2l2.3-2.3h4.7L25.8,28.8z M23.4,20l1.1,1.1l-1.1,1.1h-4.8l-1.1-1.1l1.1-1.1H23.4z"/>
	<path d="M28.4,19.9v-5.9l2.3,2.2v3.1l-1.4,1.5L28.4,19.9z M30.6,23v3.1l-2.3,2.3v-5.9l0.9-0.9L30.6,23z M28.8,28.8l2.3-2.3h4.3
		l1.1,1.1l-1.1,1.1H28.8z M36.5,14.6l-1.1,1.1h-4.3l-2.3-2.3h6.5L36.5,14.6z M38,19.9l-0.9,0.9l-1.4-1.4v-3.1l1.1-1.1l1.1,1.1V19.9z
		 M38,26.1l-1.1,1.1l-1.1-1.1V23l1.4-1.4l0.9,0.9V26.1z"/>
</g>
</svg>
