<?xml version="1.0" encoding="utf-8"?>
<!-- Generator: Adobe Illustrator 19.2.1, SVG Export Plug-In . SVG Version: 6.00 Build 0)  -->
<svg version="1.1" id="wed" xmlns="http://www.w3.org/2000/svg" xmlns:xlink="http://www.w3.org/1999/xlink" x="0px" y="0px"
	 viewBox="0 0 42 42" enable-background="new 0 0 42 42" xml:space="preserve">
<g id="wed_1_">
	<path d="M5.9,20.8l-0.4-0.4v-6.1c0.1-0.6,0.5-0.9,1.1-1.1l0.7,1.7v4.6L5.9,20.8z M5.5,27.3v-5.7l0.4-0.4l1.3,1.3v4.1L5.5,27.3z
		 M13.1,28.9H6.6c-0.6-0.1-0.9-0.5-1.1-1.1l1.7-0.7h5.2L13.1,28.9z M10.9,26.7H9.2v-5l0.9-0.9l0.9,0.9L10.9,26.7L10.9,26.7z
		 M12.9,19.5v-4.6l0.7-1.7c0.6,0.1,0.9,0.5,1.1,1.1v6.1l-0.4,0.4L12.9,19.5z M14.2,21.2l0.4,0.4v6.1c-0.1,0.6-0.5,0.9-1.1,1.1
		l-0.7-1.7v-4.6L14.2,21.2z"/>
	<path d="M18.1,15.3v4.1l-1.3,1.3l-0.4-0.4v-5.7L18.1,15.3z M16.4,27.3v-5.7l0.4-0.4l1.3,1.3v4.1L16.4,27.3z M24.7,28.9h-7.2
		c-0.6-0.1-0.9-0.5-1.1-1.1l1.7-0.7H24L24.7,28.9z M24,14.9h-5.9l-1.7-0.7c0.1-0.6,0.5-0.9,1.1-1.1h7.2L24,14.9z M23.8,20.1l0.9,0.9
		l-0.9,0.9h-5.7L17.2,21l0.9-0.9H23.8z"/>
	<path d="M34.3,14.9h-5.2l-1.7-0.7v-1.1h7l0.9,0.9L34.3,14.9z M29,15.3v4.1l-1.3,1.4l-0.4-0.4v-5.7L29,15.3z M27.3,27.3v-5.7
		l0.4-0.4l1.3,1.3v4.1L27.3,27.3z M35.1,28l-0.9,0.9h-7v-1.1l1.7-0.7h5.2L35.1,28z M34.7,19.5v-4.6l0.7-0.7l1.1,1.1v5l-0.4,0.4
		L34.7,19.5z M36,21.2l0.4,0.4v5l-1.1,1.1l-0.6-0.6v-4.6L36,21.2z"/>
</g>
</svg>
